<?xml version="1.0" encoding="UTF-8"?>
<svg width="147px" height="14px" viewBox="0 0 147 14" version="1.1" xmlns="http://www.w3.org/2000/svg" xmlns:xlink="http://www.w3.org/1999/xlink">
    <!-- Generator: Sketch 46.2 (44496) - http://www.bohemiancoding.com/sketch -->
    <title>Page 1</title>
    <desc>Created with Sketch.</desc>
    <defs>
        <polygon id="path-1" points="146.275039 13.7550813 146.275039 7.09315484e-05 5.31986613e-05 7.09315484e-05 5.31986613e-05 13.7550813"></polygon>
    </defs>
    <g id="Symbols" stroke="none" stroke-width="1" fill="none" fill-rule="evenodd">
        <g id="Header/Super-Global/General/Bottom" transform="translate(-73.000000, -18.000000)">
            <g id="Super-Global-Header---General">
                <g id="Page-1" transform="translate(73.000000, 18.000000)">
                    <mask id="mask-2" fill="white">
                        <use xlink:href="#path-1"></use>
                    </mask>
                    <g id="Clip-2"></g>
                    <path d="M139.488894,7.9567819 L139.488894,8.08481335 L144.701831,8.08481335 L144.701831,7.88354508 C144.701831,6.2191363 143.696021,5.10338304 142.195996,5.10338304 C140.604647,5.10338304 139.488894,6.31046067 139.488894,7.9567819 L139.488894,7.9567819 Z M137.952339,8.81647227 C137.952339,5.81659976 139.63519,3.87786322 142.195996,3.87786322 C144.720273,3.87786322 146.275092,5.81659976 146.275092,8.48717256 L146.275092,9.18230173 L139.488894,9.18230173 L139.488894,9.62119069 C139.488894,11.2492471 140.53141,12.4747669 142.287321,12.4747669 C143.476311,12.4747669 144.390973,11.8894043 144.884834,10.8467105 L145.927528,11.5968116 C145.323723,12.8771261 143.970172,13.7550813 142.195996,13.7550813 C139.63519,13.7550813 137.952339,11.8161675 137.952339,8.81647227 L137.952339,8.81647227 Z M134.385546,13.5355482 C133.379559,13.5355482 132.830727,12.895391 132.830727,11.980906 L132.830727,5.37771081 L131.276084,5.37771081 L131.276084,4.09721903 L132.15404,4.09721903 C132.775932,4.09721903 132.977023,3.87786322 132.977023,3.23752866 L132.977023,1.48161818 L134.294044,1.48161818 L134.294044,4.09721903 L136.36099,4.09721903 L136.36099,5.37771081 L134.294044,5.37771081 L134.294044,12.2552337 L136.214693,12.2552337 L136.214693,13.5355482 L134.385546,13.5355482 Z M127.672584,10.7919159 L127.672584,9.23709635 L125.733848,9.23709635 C124.069262,9.23709635 123.319161,9.74922213 123.319161,10.6638844 L123.319161,11.0479788 C123.319161,11.980906 124.05082,12.5112966 125.185015,12.5112966 C126.629891,12.5112966 127.672584,11.7613728 127.672584,10.7919159 L127.672584,10.7919159 Z M129.391965,13.5355482 C128.312919,13.5355482 127.873853,12.8771261 127.764086,11.9991708 L127.672584,11.9991708 C127.270225,13.1514539 126.264238,13.7550813 124.947217,13.7550813 C122.953331,13.7550813 121.782606,12.6575929 121.782606,10.9016825 C121.782606,9.12750711 123.063098,8.13960797 125.806907,8.13960797 L127.672584,8.13960797 L127.672584,7.20685811 C127.672584,5.87157171 126.940925,5.13991279 125.441078,5.13991279 C124.30706,5.13991279 123.556959,5.68856832 123.04501,6.54825868 L122.166878,5.72527539 C122.679003,4.71928871 123.813199,3.87786322 125.514137,3.87786322 C127.782351,3.87786322 129.135902,5.06667597 129.135902,7.06056179 L129.135902,12.2552337 L130.215126,12.2552337 L130.215126,13.5355482 L129.391965,13.5355482 Z M115.782861,13.5355482 L112.472131,4.09721903 L113.935449,4.09721903 L115.58177,8.77994252 L116.606199,11.9991708 L116.697701,11.9991708 L117.721952,8.77994252 L119.404626,4.09721903 L120.813149,4.09721903 L117.484154,13.5355482 L115.782861,13.5355482 Z M109.125048,13.5355482 L110.588366,13.5355482 L110.588366,4.09721903 L109.125048,4.09721903 L109.125048,13.5355482 Z M108.96031,1.0609941 L108.96031,0.823018756 C108.96031,0.329335179 109.234815,3.54657742e-05 109.85653,3.54657742e-05 C110.478422,3.54657742e-05 110.752927,0.329335179 110.752927,0.823018756 L110.752927,1.0609941 C110.752927,1.55467768 110.478422,1.88397739 109.85653,1.88397739 C109.234815,1.88397739 108.96031,1.55467768 108.96031,1.0609941 L108.96031,1.0609941 Z M102.412264,13.5355482 L102.412264,4.09721903 L103.875582,4.09721903 L103.875582,5.83504196 L103.967084,5.83504196 C104.296383,4.93864452 105.156074,4.09721903 106.692451,4.09721903 L107.259549,4.09721903 L107.259549,5.56053687 L106.399681,5.56053687 C104.826774,5.56053687 103.875582,6.23740117 103.875582,7.13362129 L103.875582,13.5355482 L102.412264,13.5355482 Z M93.1936454,6.73126208 L96.7419961,6.73126208 C97.949251,6.73126208 98.6626451,6.07266265 98.6626451,4.90211477 L98.6626451,3.95092271 C98.6626451,2.78037483 97.949251,2.12177541 96.7419961,2.12177541 L93.1936454,2.12177541 L93.1936454,6.73126208 Z M91.6570907,13.5355482 L91.6570907,0.768224135 L96.7419961,0.768224135 C99.0284745,0.768224135 100.308966,2.17674736 100.308966,4.42651874 C100.308966,6.67629013 99.0284745,8.08481335 96.7419961,8.08481335 L93.1936454,8.08481335 L93.1936454,13.5355482 L91.6570907,13.5355482 Z M82.4017649,10.1517587 L82.4017649,7.31662468 C82.4017649,6.43849211 81.6520185,5.90810146 80.6275896,5.90810146 C79.603338,5.90810146 78.8534142,6.694555 78.8534142,7.90180996 L78.8534142,9.56639607 C78.8534142,10.773651 79.603338,11.5601046 80.6275896,11.5601046 C81.6520185,11.5601046 82.4017649,11.0297139 82.4017649,10.1517587 L82.4017649,10.1517587 Z M82.4017649,11.925934 L82.3104406,11.925934 C82.0361128,12.9686278 80.9751542,13.7550813 79.7313695,13.7550813 C77.2985947,13.7550813 76.0365451,11.980906 76.0365451,8.72497057 C76.0365451,5.4692125 77.2985947,3.71312469 79.7313695,3.71312469 C80.9751542,3.71312469 82.0361128,4.48131336 82.3104406,5.542272 L82.4017649,5.542272 L82.4017649,3.54657742e-05 L85.1090448,3.54657742e-05 L85.1090448,13.5355482 L82.4017649,13.5355482 L82.4017649,11.925934 Z M71.2809395,11.925934 L71.1894378,11.925934 C70.8603154,12.895391 70.0736845,13.7550813 68.5006001,13.7550813 C66.5434213,13.7550813 65.5007276,12.3832652 65.5007276,9.96875527 L65.5007276,3.93265784 L68.2080074,3.93265784 L68.2080074,9.73095726 C68.2080074,10.9016825 68.5921018,11.5601046 69.5798236,11.5601046 C70.4210718,11.5601046 71.2809395,11.0845085 71.2809395,10.1700235 L71.2809395,3.93265784 L73.988042,3.93265784 L73.988042,13.5355482 L71.2809395,13.5355482 L71.2809395,11.925934 Z M60.8731534,9.71269239 L60.8731534,7.75551364 C60.8731534,6.54825868 60.2514383,5.85330684 59.1903024,5.85330684 C58.1295211,5.85330684 57.5076287,6.54825868 57.5076287,7.75551364 L57.5076287,9.71269239 C57.5076287,10.9199473 58.1295211,11.6150765 59.1903024,11.6150765 C60.2514383,11.6150765 60.8731534,10.9199473 60.8731534,9.71269239 L60.8731534,9.71269239 Z M54.6907596,8.72497057 C54.6907596,5.6337737 56.3734333,3.71312469 59.1903024,3.71312469 C62.0073488,3.71312469 63.6900225,5.6337737 63.6900225,8.72497057 C63.6900225,11.8161675 62.0073488,13.7550813 59.1903024,13.7550813 C56.3734333,13.7550813 54.6907596,11.8161675 54.6907596,8.72497057 L54.6907596,8.72497057 Z M52.4409882,13.5355482 C50.593576,13.5355482 49.7521505,12.6027983 49.7521505,10.9016825 L49.7521505,3.54657742e-05 L52.4592531,3.54657742e-05 L52.4592531,11.4320731 L53.666508,11.4320731 L53.666508,13.5355482 L52.4409882,13.5355482 Z M37.4969523,7.24338786 C37.4969523,2.92667115 39.7103712,0.548690992 43.1489554,0.548690992 C45.4902285,0.548690992 46.9902534,1.49988306 47.9231806,3.5485635 L45.5269355,4.7923482 C45.1976358,3.73138957 44.5209489,3.01799552 43.1489554,3.01799552 C41.5212537,3.01799552 40.4420302,4.1154839 40.4420302,6.1276346 L40.4420302,8.17631505 C40.4420302,10.1882884 41.5212537,11.2857768 43.1489554,11.2857768 C44.5209489,11.2857768 45.3074024,10.4260864 45.6914967,9.38339267 L47.9597103,10.7004142 C47.0085183,12.6393281 45.4902285,13.7550813 43.1489554,13.7550813 C39.7103712,13.7550813 37.4969523,11.5601046 37.4969523,7.24338786 L37.4969523,7.24338786 Z M29.7966234,2.78037483 L29.7051217,2.78037483 L28.6258982,4.92037965 L25.571231,10.4808811 L22.5350061,4.92037965 L21.4557826,2.79863971 L21.3642809,2.79863971 L21.3642809,13.5355482 L19.8644333,13.5355482 L19.8644333,0.768224135 L21.8764067,0.768224135 L25.5347013,7.64592439 L25.6079381,7.64592439 L29.2844976,0.768224135 L31.296471,0.768224135 L31.296471,13.5355482 L29.7966234,13.5355482 L29.7966234,2.78037483 Z M9.4564699,12.1821742 L13.242796,12.1821742 C14.5598175,12.1821742 15.3647132,11.4870451 15.3647132,10.2065533 L15.3647132,9.58466094 C15.3647132,8.30416916 14.5598175,7.60921732 13.242796,7.60921732 L9.4564699,7.60921732 L9.4564699,12.1821742 Z M9.4564699,6.29219579 L12.9869104,6.29219579 C14.193988,6.29219579 14.9256469,5.65203857 14.9256469,4.51802044 L14.9256469,3.89612809 C14.9256469,2.76210996 14.193988,2.12177541 12.9869104,2.12177541 L9.4564699,2.12177541 L9.4564699,6.29219579 Z M7.92009256,0.768224135 L13.1697365,0.768224135 C15.2732115,0.768224135 16.5717908,2.06698079 16.5717908,4.06068928 C16.5717908,5.96289608 15.3464483,6.63976038 14.5050229,6.76779183 L14.5050229,6.8775584 C15.4195078,6.93253035 17.0108571,7.71898389 17.0108571,9.84090116 C17.0108571,11.9441989 15.6025112,13.5355482 13.718392,13.5355482 L7.92009256,13.5355482 L7.92009256,0.768224135 Z M5.31986613e-05,13.5355482 L5.31986613e-05,12.2552337 L1.79267076,12.2552337 L1.79267076,2.04871591 L5.31986613e-05,2.04871591 L5.31986613e-05,0.768224135 L5.12166565,0.768224135 L5.12166565,2.04871591 L3.32904809,2.04871591 L3.32904809,12.2552337 L5.12166565,12.2552337 L5.12166565,13.5355482 L5.31986613e-05,13.5355482 Z" id="Fill-1" fill="#FFFFFF" mask="url(#mask-2)"></path>
                </g>
            </g>
        </g>
    </g>
</svg>