<?xml version="1.0" encoding="utf-8"?>
<!-- Generator: Adobe Illustrator 22.1.0, SVG Export Plug-In . SVG Version: 6.00 Build 0)  -->
<svg version="1.1" id="Layer_1" xmlns="http://www.w3.org/2000/svg" xmlns:xlink="http://www.w3.org/1999/xlink" x="0px" y="0px"
	 viewBox="0 0 30 30" style="enable-background:new 0 0 30 30;" xml:space="preserve">
<style type="text/css">
	.st0{fill:#F21A06;}
	.st1{fill:#FFFFFF;}
</style>
<circle class="st0" cx="15" cy="15" r="15"/>
<g>
	<path class="st1" d="M15.9,23.6c0.2-0.1,0.4-0.2,0.6-0.4c0.6-0.4,0.9-1,1.1-1.7c0.1-0.5,0.1-1.1-0.1-1.6c-0.3-0.7-0.8-1.2-1.5-1.4
		c-0.4-0.1-0.9,0-1.3,0.1c-0.4,0.1-0.8,0.2-1.2,0.2c-0.7-0.1-1.2-0.5-1.5-1.2c-0.3-0.6-0.3-1.2-0.2-1.8c0.1-0.4,0.2-0.8,0.2-1.2
		c-0.1,0.1-0.1,0.1-0.2,0.2c-0.9,0.9-1.6,1.9-2,3.1c-0.4,1.5-0.3,2.9,0.4,4.2c0.4,0.7,0.9,1.3,1.7,1.7c0,0,0,0,0.1,0.1
		c-0.2-0.1-0.4-0.1-0.7-0.2c-1-0.3-1.9-0.7-2.7-1.3c-1.3-1-2.2-2.3-2.4-4c-0.2-1.4,0-2.7,0.6-4.1c0.4-1,1.1-1.8,1.8-2.5
		c0.7-0.7,1.5-1.3,2.2-1.8c0.6-0.5,1.2-0.9,1.8-1.4c0.5-0.4,1-0.9,1.3-1.5c0.4-0.8,0.6-1.6,0.6-2.4c0-0.8-0.2-1.6-0.4-2.4
		c0,0,0-0.1,0-0.1c0.2,0.1,0.3,0.2,0.4,0.3c0.7,0.5,1.3,1,1.9,1.6c0.7,0.8,1.2,1.7,1.3,2.7c0.2,1.6-0.2,2.9-1.3,4.1
		c-0.2,0.2-0.4,0.5-0.6,0.7c-0.5,1,0,1.8,0.9,2c0.6,0.2,1.2,0,1.7-0.5c0.5-0.5,0.7-1,0.6-1.6c0-0.6,0-1.3,0.2-1.9
		c0.3-1,1-1.5,1.9-1.8c0.2-0.1,0.5-0.1,0.7-0.1c0,0,0,0,0,0c0,0,0,0.1-0.1,0.1c-0.2,0.4-0.4,0.8-0.5,1.2c-0.1,0.6,0,1.1,0.2,1.6
		c0.2,0.4,0.4,0.8,0.6,1.2c0.3,0.5,0.6,1.1,0.8,1.7c0.2,0.6,0.3,1.2,0.3,1.9c0,0.9-0.2,1.7-0.5,2.6c-0.4,1.3-1.2,2.3-2.2,3.2
		c-0.9,0.8-2,1.4-3.1,1.9C16.9,23.4,16.4,23.5,15.9,23.6C15.9,23.6,15.9,23.6,15.9,23.6z"/>
</g>
</svg>
