<?xml version="1.0" encoding="utf-8"?>
<svg xmlns="http://www.w3.org/2000/svg" xmlns:xlink="http://www.w3.org/1999/xlink">
    <symbol viewBox="0 0 50 50" id="cloud">
      <path d="M 13.5 13.5 C 1.5 13.5 1.5 25.5 5.5 27.5C 1.5 32.5 5.5 43.5 16.5 39.5C 20.5 48.5 34.5 48.5 39.5 39.5C 48.5 39.5 48.5 29.5 48.5 25.5C 48.5 15.5 39.5 6.5 30.5 10.5C 25.5 1.5 15.5 1.5 13.5 13.5Z" ></path>
    </symbol>
    <symbol viewBox="0 0 41.5 41.3" id="circle">
       <circle cx="20.8" cy="20.7" r="19.1"/>
    </symbol>
    <symbol viewBox="0 0 50 50" id="roundedSq">
      <rect x="1.5" y="1.5" width="47" height="47" rx="15" ry="15" />
    </symbol>
    <symbol viewBox="0 0 50 50" id="roundedRect">
       <rect x="5.5" y="1.5" width="39" height="47" rx="5" ry="5" />
    </symbol>
    <symbol viewBox="0 0 52 44" id="hexagon">
       <path d="M1.5 21.65L12.5 0L37.5 0L50 21.65L37.5 43.3L12.5 43.3Z"></path>
    </symbol>
    <symbol viewBox="0 0 50 50" id="cylinder">
      <path d="M 1.5 10 C 1.5 1.5 48 1.5 48 10 L 48 40 C 48 48 1.5 48 1.5 40 Z"></path>
    </symbol>
    <symbol viewBox="0 0 50 52" id="host">
      <path d="m1 16 24-13 24 13-24 13z"/>
      <path d="m10 21-9 5 24 14 24-13-9-6-15 7.9z"/>
      <path d="m10 31-9 5 24 14 24-13-8-6-16 9.1z"/>
   </symbol>
   <symbol viewBox="0 0 50 54" id="irregularHexagon">
     <path d="m23 2 23 3.5 3.7 31-28 15-18-8.5-3.2-31z"/>
   </symbol>
   <symbol viewBox="0 0 50 50" id="star4">
     <path d="m25 2 9.1 17 15 6.8-15 7.2-9.2 17-8.8-17-15-7 15-7z" />
   </symbol>
   <symbol viewBox="0 0 50 50" id="gear">
     <path d="m9.7 6 6.5 2.4 2.5-1 2.9-6.3 0.25-0.45 5.3 0.13 2.9 6.3 2.9 1.3 6.5-2.7 3.8 3.8-2.3 6.4 1.1 3 6.6 2.8-0.063 5.2-6.4 3.4-1.1 2.9 2.6 6.3-3.8 3.8-6.3-2.3-2.9 0.89-3.1 6.6h-5.1l-3.2-6.3-2.8-1.3-6.6 2.6-3.9-3.8 2.4-6.4-1.3-3.1-6-2.8-0.13-5.3 6.2-2.9 1.2-2.8-2.4-6.7z"/>
   </symbol>
   <symbol viewBox="0 0 41.5 41.3" id="clock">
     <g>
       <circle cx="20.8" cy="20.7" r="19.1"/>
       <path d="m10 17 9.4 6.2" stroke-width="4px"/>
       <path d="m34 13-14 11" stroke-width="2px"/>
     </g>
   </symbol>
</svg>