<?xml version="1.0" encoding="utf-8"?>
<svg xmlns="http://www.w3.org/2000/svg" xmlns:xlink="http://www.w3.org/1999/xlink">
    <symbol viewBox="0 0 41.5 41.3" id="circle">
       <circle cx="20.8" cy="20.7" r="19.1"/>
    </symbol>
    <symbol viewBox="0 0 16 16" id="checkmark">
       <circle cx="8" cy="8" r="8" fill="white"/>
       <path d="M8 0C3.6 0 0 3.6 0 8s3.6 8 8 8 8-3.6 8-8-3.6-8-8-8zM6.7 11.5L3.4 8.1l1.4-1.4 1.9 1.9 4.1-4.1 1.4 1.4-5.5 5.6z"/>
    </symbol>
    <symbol viewBox="0 0 32 32" id="refresh">
       <path d="M 16 4 C 10.886719 4 6.617188 7.160156 4.875 11.625 L 6.71875 12.375 C 8.175781 8.640625 11.710938 6 16 6 C 19.242188 6 22.132813 7.589844 23.9375 10 L 20 10 L 20 12 L 27 12 L 27 5 L 25 5 L 25 8.09375 C 22.808594 5.582031 19.570313 4 16 4 Z M 25.28125 19.625 C 23.824219 23.359375 20.289063 26 16 26 C 12.722656 26 9.84375 24.386719 8.03125 22 L 12 22 L 12 20 L 5 20 L 5 27 L 7 27 L 7 23.90625 C 9.1875 26.386719 12.394531 28 16 28 C 21.113281 28 25.382813 24.839844 27.125 20.375 Z "/>
    </symbol>
    <symbol viewBox="0 0 12 9" id="selection">
        <path d="M4.1 6.1L1.4 3.4 0 4.9 4.1 9l7.6-7.6L10.3 0z"/>
    </symbol>
    <symbol viewBox="0 0 24 24" id="error">
        <path d="M12 0C5.4 0 0 5.4 0 12s5.4 12 12 12 12-5.4 12-12S18.6 0 12 0zm0 22c-1.8 0-3.5-.5-5-1.4l.1-.1 12-15 .2-.4C21 7 22 9.4 22 12c0 5.5-4.5 10-10 10zm0-20c1.8 0 3.5.5 5 1.4v.1l-12 15-.2.4C3 17 2 14.6 2 12 2 6.5 6.5 2 12 2z"/>
    </symbol>
    <symbol viewBox="0 0 12 12" id="filter">
        <path d="M12,2.14285714 L9.81394286,2.14285714 C9.61051572,1.14489327 8.73275066,0.428003074 7.71426429,0.428003074 C6.69577792,0.428003074 5.81801285,1.14489327 5.61458571,2.14285714 L0,2.14285714 L0,3 L5.61462857,3 C5.81805571,3.99796387 6.69582077,4.71485407 7.71430714,4.71485407 C8.73279351,4.71485407 9.61055858,3.99796387 9.81398571,3 L12,3 L12,2.14285714 Z M7.71428571,3.85714286 C7.00420532,3.85714286 6.42857143,3.28150896 6.42857143,2.57142857 C6.42857143,1.86134818 7.00420532,1.28571429 7.71428571,1.28571429 C8.42436611,1.28571429 9,1.86134818 9,2.57142857 C8.99919698,3.28117608 8.42403322,3.85633984 7.71428571,3.85714286 Z M12,9 L6.38537143,9 C6.18194429,8.00203613 5.30417923,7.28514593 4.28569286,7.28514593 C3.26720649,7.28514593 2.38944142,8.00203613 2.18601429,9 L0,9 L0,9.85714286 L2.18605714,9.85714286 C2.38948428,10.8551067 3.26724934,11.5719969 4.28573571,11.5719969 C5.30422208,11.5719969 6.18198715,10.8551067 6.38541429,9.85714286 L12,9.85714286 L12,9 Z M4.28571429,10.7142857 C3.57563389,10.7142857 3,10.1386518 3,9.42857143 C3,8.71849104 3.57563389,8.14285714 4.28571429,8.14285714 C4.99579468,8.14285714 5.57142857,8.71849104 5.57142857,9.42857143 C5.57062556,10.1383189 4.99546179,10.7134827 4.28571429,10.7142857 Z"></path>
    </symbol>
    <symbol viewBox="0 0 12 12" id="autoRefresh">
        <path d="M8.33703191,2.28461538 L6.50516317,0.553494162 L7.02821674,3.11581538e-14 L9.9,2.71384343 L7.02748392,5.41285697 L6.50601674,4.85786795 L8.43419451,3.04615385 L4.95,3.04615385 C2.63677657,3.04615385 0.761538462,4.92139195 0.761538462,7.23461538 C0.761538462,9.54783882 2.63677657,11.4230769 4.95,11.4230769 C7.26322343,11.4230769 9.13846154,9.54783882 9.13846154,7.23461538 L9.9,7.23461538 C9.9,9.9684249 7.68380951,12.1846154 4.95,12.1846154 C2.21619049,12.1846154 0,9.9684249 0,7.23461538 C-1.77635684e-15,4.50080587 2.21619049,2.28461538 4.95,2.28461538 L8.33703191,2.28461538 Z" id="restart"></path>
    </symbol>
    <symbol viewBox="0 0 31 34" id="zoomIn">
        <path d="M1.43739537,33 L30.4373954,33 L30.4373954,15.4609375 C30.4373954,7.45280863 23.9455242,0.9609375 15.9373954,0.9609375 C7.9292665,0.9609375 1.43739537,7.45280863 1.43739537,15.4609375 L1.43739537,33 Z" id="Rectangle-3" stroke="#D1D7F4" fill="#FFFFFF"></path>
        <g id="add" transform="translate(8.937395, 10.411133)" fill="#3C6DF0" fill-rule="nonzero">
            <g id="Icon" transform="translate(0.750000, 0.750000)">
                <polygon id="Shape" points="6.875 5.625 6.875 0 5.625 0 5.625 5.625 0 5.625 0 6.875 5.625 6.875 5.625 12.5 6.875 12.5 6.875 6.875 12.5 6.875 12.5 5.625"></polygon>
            </g>
        </g>
    </symbol>
    <symbol viewBox="0 0 31 34" id="zoomOut">
        <path d="M1.08485631,33.4192708 L30.0848563,33.4192708 L30.0848563,15.8802083 C30.0848563,7.87207946 23.5929852,1.38020833 15.5848563,1.38020833 C7.57672743,1.38020833 1.08485631,7.87207946 1.08485631,15.8802083 L1.08485631,33.4192708 Z" id="Rectangle-3" stroke="#D1D7F4" fill="#FFFFFF" transform="translate(15.584856, 17.399740) scale(1, -1) translate(-15.584856, -17.399740) "></path>
        <g id="subtract" transform="translate(8.584856, 15.380208)" fill="#3C6DF0" fill-rule="nonzero">
            <g id="Icon" transform="translate(0.750000, 0.375000)">
                <rect id="Rectangle-path" x="0" y="0" width="12.5" height="1.25"></rect>
            </g>
        </g>
    </symbol>
    <symbol viewBox="0 0 32 32" id="zoomTarget">
        <circle id="Oval-3-Copy" stroke="#D1D7F4" fill="#FFFFFF" cx="15.3129883" cy="15.6591797" r="15"></circle>
        <g id="Group-6-Copy" transform="translate(5.216553, 4.659180)">
            <g id="radio--button--checked" transform="translate(1.240356, 2.000000)" fill="#3C6DF0" fill-rule="nonzero">
                <g id="Icon" transform="translate(0.250000, 0.250000)">
                    <circle id="Oval" cx="8.75" cy="8.75" r="3.75"></circle>
                    <path d="M8.75,-3.33066907e-16 C3.91750844,-1.16573418e-15 -3.33066907e-16,3.91750844 -8.8817842e-16,8.75 C-1.44328993e-15,13.5824916 3.91750844,17.5 8.75,17.5 C13.5824916,17.5 17.5,13.5824916 17.5,8.75 C17.5,6.42935571 16.5781276,4.20375898 14.9371843,2.56281566 C13.296241,0.921872353 11.0706443,-6.10622664e-16 8.75,-3.33066907e-16 Z M8.75,16.25 C4.60786438,16.25 1.25,12.8921356 1.25,8.75 C1.25,4.60786438 4.60786438,1.25 8.75,1.25 C12.8921356,1.25 16.25,4.60786438 16.25,8.75 C16.25,10.7391237 15.4598237,12.646778 14.0533009,14.0533009 C12.646778,15.4598237 10.7391237,16.25 8.75,16.25 Z" id="Shape"></path>
                </g>
            </g>
            <g id="Group-4" transform="translate(0.000000, 10.000000)" stroke="#3C6DF0" stroke-linecap="square" stroke-width="1.25">
                <path d="M16.2403564,1 L20.2403564,1" id="Line-4"></path>
                <path d="M0.177490234,1 L4.17749023,1" id="Line-4-Copy-2"></path>
            </g>
            <g id="Group-5" transform="translate(9.000000, 0.000000)" stroke="#3C6DF0" stroke-linecap="square" stroke-width="1.25">
                <path d="M1.24035645,17.1583252 L1.24035645,21.1583252" id="Line-4"></path>
                <path d="M1.24035645,0.871337891 L1.24035645,4.87133789" id="Line-4-Copy"></path>
            </g>
        </g>
    </symbol>


</svg>