<?xml version="1.0" encoding="utf-8"?>
<svg xmlns="http://www.w3.org/2000/svg" xmlns:xlink="http://www.w3.org/1999/xlink">
    <symbol viewBox="0 0 41.5 41.3" id="circle">
       <circle cx="20.8" cy="20.7" r="19.1"/>
    </symbol>
    <symbol viewBox="0 0 16 16" id="checkmark">
       <circle cx="8" cy="8" r="8" fill="white"/>
       <path d="M8 0C3.6 0 0 3.6 0 8s3.6 8 8 8 8-3.6 8-8-3.6-8-8-8zM6.7 11.5L3.4 8.1l1.4-1.4 1.9 1.9 4.1-4.1 1.4 1.4-5.5 5.6z"/>
    </symbol>
    <symbol viewBox="0 0 32 32" id="refresh">
       <path d="M 16 4 C 10.886719 4 6.617188 7.160156 4.875 11.625 L 6.71875 12.375 C 8.175781 8.640625 11.710938 6 16 6 C 19.242188 6 22.132813 7.589844 23.9375 10 L 20 10 L 20 12 L 27 12 L 27 5 L 25 5 L 25 8.09375 C 22.808594 5.582031 19.570313 4 16 4 Z M 25.28125 19.625 C 23.824219 23.359375 20.289063 26 16 26 C 12.722656 26 9.84375 24.386719 8.03125 22 L 12 22 L 12 20 L 5 20 L 5 27 L 7 27 L 7 23.90625 C 9.1875 26.386719 12.394531 28 16 28 C 21.113281 28 25.382813 24.839844 27.125 20.375 Z "/>
    </symbol>
    <symbol viewBox="0 0 12 9" id="selection">
        <path d="M4.1 6.1L1.4 3.4 0 4.9 4.1 9l7.6-7.6L10.3 0z"/>
    </symbol>
    <symbol viewBox="0 0 24 24" id="error">
        <path d="M12 0C5.4 0 0 5.4 0 12s5.4 12 12 12 12-5.4 12-12S18.6 0 12 0zm0 22c-1.8 0-3.5-.5-5-1.4l.1-.1 12-15 .2-.4C21 7 22 9.4 22 12c0 5.5-4.5 10-10 10zm0-20c1.8 0 3.5.5 5 1.4v.1l-12 15-.2.4C3 17 2 14.6 2 12 2 6.5 6.5 2 12 2z"/>
    </symbol>
    <symbol viewBox="0 0 12 12" id="filter">
        <path d="M12,2.14285714 L9.81394286,2.14285714 C9.61051572,1.14489327 8.73275066,0.428003074 7.71426429,0.428003074 C6.69577792,0.428003074 5.81801285,1.14489327 5.61458571,2.14285714 L0,2.14285714 L0,3 L5.61462857,3 C5.81805571,3.99796387 6.69582077,4.71485407 7.71430714,4.71485407 C8.73279351,4.71485407 9.61055858,3.99796387 9.81398571,3 L12,3 L12,2.14285714 Z M7.71428571,3.85714286 C7.00420532,3.85714286 6.42857143,3.28150896 6.42857143,2.57142857 C6.42857143,1.86134818 7.00420532,1.28571429 7.71428571,1.28571429 C8.42436611,1.28571429 9,1.86134818 9,2.57142857 C8.99919698,3.28117608 8.42403322,3.85633984 7.71428571,3.85714286 Z M12,9 L6.38537143,9 C6.18194429,8.00203613 5.30417923,7.28514593 4.28569286,7.28514593 C3.26720649,7.28514593 2.38944142,8.00203613 2.18601429,9 L0,9 L0,9.85714286 L2.18605714,9.85714286 C2.38948428,10.8551067 3.26724934,11.5719969 4.28573571,11.5719969 C5.30422208,11.5719969 6.18198715,10.8551067 6.38541429,9.85714286 L12,9.85714286 L12,9 Z M4.28571429,10.7142857 C3.57563389,10.7142857 3,10.1386518 3,9.42857143 C3,8.71849104 3.57563389,8.14285714 4.28571429,8.14285714 C4.99579468,8.14285714 5.57142857,8.71849104 5.57142857,9.42857143 C5.57062556,10.1383189 4.99546179,10.7134827 4.28571429,10.7142857 Z"></path>
    </symbol>
    <symbol viewBox="0 0 12 12" id="autoRefresh">
        <path d="M8.33703191,2.28461538 L6.50516317,0.553494162 L7.02821674,3.11581538e-14 L9.9,2.71384343 L7.02748392,5.41285697 L6.50601674,4.85786795 L8.43419451,3.04615385 L4.95,3.04615385 C2.63677657,3.04615385 0.761538462,4.92139195 0.761538462,7.23461538 C0.761538462,9.54783882 2.63677657,11.4230769 4.95,11.4230769 C7.26322343,11.4230769 9.13846154,9.54783882 9.13846154,7.23461538 L9.9,7.23461538 C9.9,9.9684249 7.68380951,12.1846154 4.95,12.1846154 C2.21619049,12.1846154 0,9.9684249 0,7.23461538 C-1.77635684e-15,4.50080587 2.21619049,2.28461538 4.95,2.28461538 L8.33703191,2.28461538 Z" id="restart"></path>
    </symbol>
    <symbol viewBox="0 0 31 34" id="zoomIn">
        <path d="M1.43739537,33 L30.4373954,33 L30.4373954,15.4609375 C30.4373954,7.45280863 23.9455242,0.9609375 15.9373954,0.9609375 C7.9292665,0.9609375 1.43739537,7.45280863 1.43739537,15.4609375 L1.43739537,33 Z" id="Rectangle-3" stroke="#D1D7F4" fill="#FFFFFF"></path>
        <g id="add" transform="translate(8.937395, 10.411133)" fill="#3C6DF0" fill-rule="nonzero">
            <g id="Icon" transform="translate(0.750000, 0.750000)">
                <polygon id="Shape" points="6.875 5.625 6.875 0 5.625 0 5.625 5.625 0 5.625 0 6.875 5.625 6.875 5.625 12.5 6.875 12.5 6.875 6.875 12.5 6.875 12.5 5.625"></polygon>
            </g>
        </g>
    </symbol>
    <symbol viewBox="0 0 31 34" id="zoomOut">
        <path d="M1.08485631,33.4192708 L30.0848563,33.4192708 L30.0848563,15.8802083 C30.0848563,7.87207946 23.5929852,1.38020833 15.5848563,1.38020833 C7.57672743,1.38020833 1.08485631,7.87207946 1.08485631,15.8802083 L1.08485631,33.4192708 Z" id="Rectangle-3" stroke="#D1D7F4" fill="#FFFFFF" transform="translate(15.584856, 17.399740) scale(1, -1) translate(-15.584856, -17.399740) "></path>
        <g id="subtract" transform="translate(8.584856, 15.380208)" fill="#3C6DF0" fill-rule="nonzero">
            <g id="Icon" transform="translate(0.750000, 0.375000)">
                <rect id="Rectangle-path" x="0" y="0" width="12.5" height="1.25"></rect>
            </g>
        </g>
    </symbol>
    <symbol viewBox="0 0 32 32" id="zoomTarget">
        <circle id="Oval-3-Copy" stroke="#D1D7F4" fill="#FFFFFF" cx="15.3129883" cy="15.6591797" r="15"></circle>
        <g id="Group-6-Copy" transform="translate(5.216553, 4.659180)">
            <g id="radio--button--checked" transform="translate(1.240356, 2.000000)" fill="#3C6DF0" fill-rule="nonzero">
                <g id="Icon" transform="translate(0.250000, 0.250000)">
                    <circle id="Oval" cx="8.75" cy="8.75" r="3.75"></circle>
                    <path d="M8.75,-3.33066907e-16 C3.91750844,-1.16573418e-15 -3.33066907e-16,3.91750844 -8.8817842e-16,8.75 C-1.44328993e-15,13.5824916 3.91750844,17.5 8.75,17.5 C13.5824916,17.5 17.5,13.5824916 17.5,8.75 C17.5,6.42935571 16.5781276,4.20375898 14.9371843,2.56281566 C13.296241,0.921872353 11.0706443,-6.10622664e-16 8.75,-3.33066907e-16 Z M8.75,16.25 C4.60786438,16.25 1.25,12.8921356 1.25,8.75 C1.25,4.60786438 4.60786438,1.25 8.75,1.25 C12.8921356,1.25 16.25,4.60786438 16.25,8.75 C16.25,10.7391237 15.4598237,12.646778 14.0533009,14.0533009 C12.646778,15.4598237 10.7391237,16.25 8.75,16.25 Z" id="Shape"></path>
                </g>
            </g>
            <g id="Group-4" transform="translate(0.000000, 10.000000)" stroke="#3C6DF0" stroke-linecap="square" stroke-width="1.25">
                <path d="M16.2403564,1 L20.2403564,1" id="Line-4"></path>
                <path d="M0.177490234,1 L4.17749023,1" id="Line-4-Copy-2"></path>
            </g>
            <g id="Group-5" transform="translate(9.000000, 0.000000)" stroke="#3C6DF0" stroke-linecap="square" stroke-width="1.25">
                <path d="M1.24035645,17.1583252 L1.24035645,21.1583252" id="Line-4"></path>
                <path d="M1.24035645,0.871337891 L1.24035645,4.87133789" id="Line-4-Copy"></path>
            </g>
        </g>
    </symbol>
    <symbol viewBox="0 0 32 32" id="next">
      <path d="M15.293 10.707L19.586 15H8v2h11.586l-4.293 4.293 1.414 1.414L23.414 16l-6.707-6.707z"/>
      <path d="M16 2C8.269 2 2 8.269 2 16s6.269 14 14 14 14-6.269 14-14S23.731 2 16 2zm0 26C9.383 28 4 22.617 4 16S9.383 4 16 4s12 5.383 12 12-5.383 12-12 12z"/>
    </symbol>
    <symbol viewBox="0 0 32 32" id="previous">
      <path d="M16 2C8.269 2 2 8.269 2 16s6.269 14 14 14 14-6.269 14-14S23.731 2 16 2zm0 26C9.383 28 4 22.617 4 16S9.383 4 16 4s12 5.383 12 12-5.383 12-12 12z"/>
      <path d="M16.707 10.707l-1.414-1.414L8.586 16l6.707 6.707 1.414-1.414L12.414 17H24v-2H12.414z"/>
    </symbol>
    <symbol viewBox="0 0 32 32" id="restore">
      <path d="M18.853 3.793c-6.617 0-12 5.383-12 12v8.586L2.56 20.086 1.146 21.5l6.707 6.707L14.56 21.5l-1.414-1.414-4.293 4.293v-8.586c0-5.514 4.486-10 10-10s10 4.486 10 10-4.486 10-10 10v2c6.617 0 12-5.383 12-12s-5.382-12-12-12z"/>
      <path d="M20.146 18.5l1.414-1.414-1.646-1.647 5.293-5.293-.707-.707-5.293 5.293-2.647-2.646-1.414 1.414 2.647 2.646-1.293 1.293.707.707 1.293-1.293z"/>
    </symbol>
    <symbol viewBox="0 0 32 32" id="undo">
      <path d="M18.853 3.793c-6.617 0-12 5.383-12 12v8.586L2.56 20.086 1.146 21.5l6.707 6.707L14.56 21.5l-1.414-1.414-4.293 4.293v-8.586c0-5.514 4.486-10 10-10s10 4.486 10 10-4.486 10-10 10v2c6.617 0 12-5.383 12-12s-5.382-12-12-12z"/>
    </symbol>
    <symbol viewBox="0 0 32 32" id="redo">
      <path d="m 13.146,3.793 c 6.617,0 12,5.383 12,12 v 8.586 l 4.293,-4.293 1.414,1.414 -6.707,6.707 -6.707,-6.707 1.414,-1.414 4.293,4.293 v -8.586 c 0,-5.514 -4.486,-10 -10,-10 -5.514,0 -10,4.486 -10,10 0,5.514 4.486,10 10,10 v 2 c -6.617,0 -12,-5.383 -12,-12 0,-6.617 5.382,-12 12,-12 z" />
    </symbol>
    <symbol viewBox="0 0 32 32" id="deploy">
      <path d="M5 6.6l1.2 1.1L11 3v13h2V3l4.8 4.7L19 6.6 12 0z"/>
      <path d="M22 14v6H2v-6H0v10h24V14z"/>
    </symbol>
    <symbol viewBox="0 0 16 16" id="success">
      <circle cx="8" cy="8" r="8" fill="white" fill-opacity="1"/>
      <path d="M8 0C3.6 0 0 3.6 0 8s3.6 8 8 8 8-3.6 8-8-3.6-8-8-8zM6.7 11.5L3.4 8.1l1.4-1.4 1.9 1.9 4.1-4.1 1.4 1.4-5.5 5.6z"/>
    </symbol>
    <symbol viewBox="0 0 16 16" id="warning">
      <circle cx="8" cy="8" r="8" fill="white" fill-opacity="1"/>
      <path d="M8 1L0 15h16L8 1zm-.8 5h1.5v1.4L8.3 11h-.8l-.4-3.6V6h.1zm.8 8c-.6 0-1-.4-1-1s.4-1 1-1 1 .4 1 1-.4 1-1 1z"/>
    </symbol>
    <symbol viewBox="0 0 16 16" id="failure">
    <g>
      <circle cx="8" cy="8" r="8" fill="white" fill-opacity="1"/>
      <path d="M8 0C3.6 0 0 3.6 0 8s3.6 8 8 8 8-3.6 8-8-3.6-8-8-8zM5.1 13.3L3.5 12 11 2.6l1.5 1.2-7.4 9.5z"/>
      </g>
    </symbol>
    <symbol viewBox="0 0 16 16" id="running">
       <path d="M197.248626,287.247075 C195.905243,286.402995 194.405989,286 192.924438,286 C190.249988,286.00019 187.632884,287.31278 186.093411,289.712847 C185.552094,290.556927 185.192049,291.463285 185,292.387544 L186.51869,292.64713 C186.675909,291.914844 186.96456,291.197605 187.393111,290.529502 C188.600443,288.647463 190.668148,287.5238 192.924438,287.52361 C194.162367,287.52361 195.372201,287.872898 196.423468,288.533383 C199.469316,290.447037 200.373949,294.456416 198.440371,297.470688 C197.233039,299.352728 195.165334,300.47639 192.909044,300.47639 C191.671115,300.47639 190.461281,300.127293 189.410013,299.466808 C188.921038,299.15961 188.490948,298.796039 188.115509,298.393615 L186.952052,299.392722 C187.423708,299.903322 187.966372,300.364405 188.584856,300.753116 C189.928239,301.597196 191.427493,302 192.909044,302 C195.583493,302 198.200598,300.68722 199.740071,298.287343 C202.132412,294.557736 201.017064,289.614955 197.248626,287.247075" id="ProgressIndeterminate"></path>
    </symbol>
    <symbol viewBox="0 0 16 16" id="pending">
       <ellipse id="Oval" cx="8" cy="8" rx="8" ry="8"></ellipse>
    </symbol>
    <symbol viewBox="0 0 16 16" id="inprogress">
       <circle fill="#FFFFFF" cx="7.5" cy="8.5" r="6.5"></circle>
       <path d="M8,16 C12.418278,16 16,12.418278 16,8 C16,3.581722 12.418278,0 8,0 C3.581722,0 0,3.581722 0,8 C0,12.418278 3.581722,16 8,16 Z M4,9 C4.55228475,9 5,8.55228475 5,8 C5,7.44771525 4.55228475,7 4,7 C3.44771525,7 3,7.44771525 3,8 C3,8.55228475 3.44771525,9 4,9 Z M8,9 C8.55228475,9 9,8.55228475 9,8 C9,7.44771525 8.55228475,7 8,7 C7.44771525,7 7,7.44771525 7,8 C7,8.55228475 7.44771525,9 8,9 Z M12,9 C12.5522847,9 13,8.55228475 13,8 C13,7.44771525 12.5522847,7 12,7 C11.4477153,7 11,7.44771525 11,8 C11,8.55228475 11.4477153,9 12,9 Z" id="Combined-Shape" fill="#EFC100"></path>
    </symbol>
    <symbol viewBox="0 0 16 16" id="canceled">
      <circle fill="#FFFFFF" cx="8.5" cy="8.5" r="4.5"></circle>
      <ellipse fill="#F19027" cx="8" cy="8" rx="8" ry="8"></ellipse>
      <polygon fill="#FFFFFF" transform="translate(8.085557, 8.085557) rotate(45.000000) translate(-8.085557, -8.085557) " points="8.81282959 8.81282959 8.81282959 11.7219205 7.35828414 11.7219205 7.35828414 8.81282959 4.44919323 8.81282959 4.44919323 7.35828414 7.35828414 7.35828414 7.35828414 4.44919323 8.81282959 4.44919323 8.81282959 7.35828414 11.7219205 7.35828414 11.7219205 8.81282959"></polygon>
    </symbol>
    <symbol viewBox="0 0 15 16" id="launch">
      <path d="M11.5808824,9.92647059 C10.7536765,9.92647059 9.98161765,10.3125 9.43014706,10.9742647 L5.40441176,8.4375 C5.56985294,7.94117647 5.56985294,7.44485294 5.40441176,7.00367647 L9.43014706,4.46691176 L9.43014706,4.46691176 C9.92647059,5.12867647 10.6985294,5.51470588 11.5808824,5.51470588 C13.125,5.51470588 14.3382353,4.30147059 14.3382353,2.75735294 C14.3382353,1.21323529 13.125,0 11.5808824,0 C10.0367647,0 8.82352941,1.21323529 8.82352941,2.75735294 C8.82352941,3.03308824 8.87867647,3.25367647 8.93382353,3.47426471 L8.93382353,3.47426471 L4.90808824,6.01102941 C3.97058824,4.79779412 2.20588235,4.63235294 1.04779412,5.56985294 C-0.165441176,6.50735294 -0.330882353,8.27205882 0.606617647,9.43014706 C1.54411765,10.6433824 3.30882353,10.8088235 4.46691176,9.87132353 C4.63235294,9.76102941 4.79779412,9.59558824 4.90808824,9.43014706 L8.93382353,11.9669118 C8.87867647,12.1875 8.82352941,12.4632353 8.82352941,12.6838235 C8.82352941,14.2279412 10.0367647,15.4411765 11.5808824,15.4411765 C13.125,15.4411765 14.3382353,14.2279412 14.3382353,12.6838235 C14.3382353,11.1397059 13.125,9.92647059 11.5808824,9.92647059 Z M11.5808824,1.10294118 C12.5183824,1.10294118 13.2352941,1.81985294 13.2352941,2.75735294 C13.2352941,3.69485294 12.5183824,4.41176471 11.5808824,4.41176471 C10.6433824,4.41176471 9.92647059,3.69485294 9.92647059,2.75735294 C9.92647059,1.81985294 10.6985294,1.10294118 11.5808824,1.10294118 Z M2.75735294,9.375 C1.81985294,9.375 1.10294118,8.65808824 1.10294118,7.72058824 C1.10294118,6.78308824 1.81985294,6.06617647 2.75735294,6.06617647 C3.69485294,6.06617647 4.41176471,6.78308824 4.41176471,7.72058824 C4.41176471,8.65808824 3.69485294,9.375 2.75735294,9.375 Z M11.5808824,14.3382353 C10.6433824,14.3382353 9.92647059,13.6213235 9.92647059,12.6838235 C9.92647059,11.7463235 10.6433824,11.0294118 11.5808824,11.0294118 C12.5183824,11.0294118 13.2352941,11.7463235 13.2352941,12.6838235 C13.2352941,13.6213235 12.5183824,14.3382353 11.5808824,14.3382353 Z"></path>
    </symbol>
</svg>