<?xml version="1.0" encoding="utf-8"?>
<svg xmlns="http://www.w3.org/2000/svg" xmlns:xlink="http://www.w3.org/1999/xlink">
    <symbol viewBox="0 0 41.5 41.3" id="circle">
       <circle cx="20.8" cy="20.7" r="19.1"/>
    </symbol>
    <symbol viewBox="0 0 32 32" id="application">
      <defs>
          <path d="M22,0 L2,0 C0.8,0 0,0.8 0,2 L0,22 C0,23.2 0.8,24 2,24 L6,24 L6,22 L2,22 L2,8 L24,8 L24,7 L24,6 L24,2 C24,0.8 23.2,0 22,0 Z M2,6 L2,2 L22,2 L22,6 L2,6 Z" id="path-1"></path>
      </defs>
      <g stroke="none" stroke-width="1" fill="none" fill-rule="evenodd">
         <rect x="0" y="0" width="32" height="32" style="fill:rgba(0,0,0,0)" />
         <g transform="translate(4.000000, 4.000000)">
              <mask id="mask-2" fill="white">
                  <use xlink:href="#path-1"></use>
              </mask>
              <use fill="#000000" xlink:href="#path-1"></use>
          </g>
          <g transform="translate(16.000000, 16.000000)"></g>
          <path d="M28.5,23.38 C28.5,23.255 28.5,23.13 28.5,23 C28.5,22.87 28.5,22.745 28.5,22.615 L29.46,21.77 C29.8226785,21.448619 29.9027429,20.9134519 29.65,20.5 L28.47,18.5 C28.2310889,18.0887349 27.7355635,17.9026515 27.285,18.055 L26.07,18.465 C25.8606561,18.3234357 25.6418042,18.1964682 25.415,18.085 L25.165,16.825 C25.0706315,16.3498842 24.649308,16.0107188 24.165,16.02 L21.82,16.02 C21.335692,16.0107188 20.9143685,16.3498842 20.82,16.825 L20.57,18.085 C20.3399149,18.1944459 20.1177131,18.3197477 19.905,18.46 L18.715,18.03 C18.2583918,17.8819572 17.7610044,18.0792333 17.53,18.5 L16.35,20.5 C16.112085,20.9123458 16.1978407,21.4352464 16.555,21.75 L17.5,22.62 C17.5,22.745 17.5,22.87 17.5,23 C17.5,23.13 17.5,23.255 17.5,23.385 L16.555,24.225 C16.1846253,24.5429955 16.0979728,25.081932 16.35,25.5 L17.53,27.5 C17.7689111,27.9112651 18.2644365,28.0973485 18.715,27.945 L19.93,27.535 C20.1393439,27.6765643 20.3581958,27.8035318 20.585,27.915 L20.835,29.175 C20.9293685,29.6501158 21.350692,29.9892812 21.835,29.98 L24.195,29.98 C24.679308,29.9892812 25.1006315,29.6501158 25.195,29.175 L25.445,27.915 C25.6750851,27.8055541 25.8972869,27.6802523 26.11,27.54 L27.32,27.95 C27.7612283,28.0828775 28.2361328,27.8970453 28.47,27.5 L29.65,25.5 C29.887915,25.0876542 29.8021593,24.5647536 29.445,24.25 L28.5,23.38 Z M26.980121,26.3333333 L25.4978392,25.85 C25.1497892,26.1308935 24.7534308,26.3508797 24.326707,26.5 L24.019879,28 L21.980121,28 L21.673293,26.5208333 C21.2496848,26.3688109 20.8564295,26.1475146 20.5108038,25.8666667 L19.019879,26.3333333 L18,24.6666667 L19.1797753,23.6708333 C19.1001417,23.2395013 19.1001417,22.7979987 19.1797753,22.3666667 L18,21.3333333 L19.019879,19.6666667 L20.5021608,20.15 C20.8502108,19.8691065 21.2465692,19.6491203 21.673293,19.5 L21.980121,18 L24.019879,18 L24.326707,19.4791667 C24.7503152,19.6311891 25.1435705,19.8524854 25.4891962,20.1333333 L26.980121,19.6666667 L28,21.3333333 L26.8202247,22.3333333 C26.899949,22.7646576 26.899949,23.2061757 26.8202247,23.6375 L28,24.6666667 L26.980121,26.3333333 Z" fill="#000000"></path>
          <rect fill="#000000" x="10" y="26" width="4" height="2"></rect>
          <rect fill="#000000" x="26" y="12" width="2" height="3"></rect>
          <path d="M23,25.75 C24.5187831,25.75 25.75,24.5187831 25.75,23 C25.75,21.4812169 24.5187831,20.25 23,20.25 C21.4812169,20.25 20.25,21.4812169 20.25,23 C20.25,24.5187831 21.4812169,25.75 23,25.75 Z M23,24.25 C22.3096441,24.25 21.75,23.6903559 21.75,23 C21.75,22.3096441 22.3096441,21.75 23,21.75 C23.6903559,21.75 24.25,22.3096441 24.25,23 C24.25,23.6903559 23.6903559,24.25 23,24.25 Z" fill="#171717" fill-rule="nonzero"></path>
      </g>
    </symbol>
    <symbol viewBox="0 0 50 50" id="deployable">
     <g>
      <path d="m22 1.6q2.8-1.5 5.7 0l17 9.2q2.8 1.5 2.8 4.6l-2.2e-4 18q0 3.1-2.8 4.6l-17 9.2q-2.8 1.5-5.7 0l-17-9.2q-2.8-1.5-2.8-4.6v-18q0-3.1 2.8-4.6z"/>
      <path d="m22 19 8.4 5.9-8.4 6.8"/>
     </g>
    </symbol>
    <symbol viewBox="0 0 32 32" id="placement">
      <g stroke="none" stroke-width="1" fill="none" fill-rule="evenodd">
          <rect x="0" y="0" width="32" height="32" style="fill:rgba(0,0,0,0)" />
          <g transform="translate(3.000000, 3.000000)">
              <g id="icon/file/template/32-copy" transform="translate(4.000000, 4.000000)" fill="#000000">
                  <polygon points="2 0 3.73205081 1 3.73205081 3 2 4 0.267949192 3 0.267949192 1"></polygon>
              </g>
              <g transform="translate(18.000000, 4.000000)" fill="#000000">
                  <polygon points="2 0 3.73205081 1 3.73205081 3 2 4 0.267949192 3 0.267949192 1"></polygon>
              </g>
              <g transform="translate(11.000000, 4.000000)" fill="#000000">
                  <polygon  points="2 0 3.73205081 1 3.73205081 3 2 4 0.267949192 3 0.267949192 1"></polygon>
              </g>
              <g transform="translate(4.000000, 11.000000)" fill="#000000">
                  <polygon points="2 0 3.73205081 1 3.73205081 3 2 4 0.267949192 3 0.267949192 1"></polygon>
              </g>
              <g transform="translate(18.000000, 11.000000)" fill="#000000">
                  <polygon points="2 0 3.73205081 1 3.73205081 3 2 4 0.267949192 3 0.267949192 1"></polygon>
              </g>
              <g transform="translate(11.000000, 11.000000)" fill="#000000">
                  <polygon points="2 0 3.73205081 1 3.73205081 3 2 4 0.267949192 3 0.267949192 1"></polygon>
              </g>
              <g transform="translate(4.000000, 18.000000)" fill="#000000">
                  <polygon points="2 0 3.73205081 1 3.73205081 3 2 4 0.267949192 3 0.267949192 1"></polygon>
              </g>
              <g transform="translate(18.000000, 18.000000)" fill="#000000">
                  <polygon points="2 0 3.73205081 1 3.73205081 3 2 4 0.267949192 3 0.267949192 1"></polygon>
              </g>
              <g transform="translate(11.000000, 18.000000)" fill="#000000">
                  <polygon points="2 0 3.73205081 1 3.73205081 3 2 4 0.267949192 3 0.267949192 1"></polygon>
              </g>
              <rect stroke="#000000" stroke-width="2" x="1" y="1" width="24" height="24" rx="2"></rect>
          </g>
      </g>
    </symbol>
    <symbol viewBox="0 0 32 32" id="chart">
      <g stroke="none" stroke-width="1" fill="#00b4a0" fill-rule="evenodd">
        <rect x="0" y="0" width="32" height="32" style="fill:rgba(0,0,0,0)" />
        <path d="M25.8724253,7.54178826 C27.6189918,9.57847922 28.7462103,12.1618733 28.9621104,15 L30,15 C30.5522847,15 31,15.4477153 31,16 C31,16.5522847 30.5522847,17 30,17 L28.9621104,17 C28.7462103,19.8381267 27.6189918,22.4215208 25.8724253,24.4582117 L26.6066017,25.1923882 C26.997126,25.5829124 26.997126,26.2160774 26.6066017,26.6066017 C26.2160774,26.997126 25.5829124,26.997126 25.1923882,26.6066017 L24.4582117,25.8724253 C22.4215208,27.6189918 19.8381267,28.7462103 17,28.9621104 L17,30 C17,30.5522847 16.5522847,31 16,31 C15.4477153,31 15,30.5522847 15,30 L15,28.9621104 C12.1618733,28.7462103 9.57847922,27.6189918 7.54178826,25.8724253 L6.80761184,26.6066017 C6.41708755,26.997126 5.78392257,26.997126 5.39339828,26.6066017 C5.00287399,26.2160774 5.00287399,25.5829124 5.39339828,25.1923882 L6.1275747,24.4582117 C4.3810082,22.4215208 3.25378973,19.8381267 3.03788963,17 L2,17 C1.44771525,17 1,16.5522847 1,16 C1,15.4477153 1.44771525,15 2,15 L3.03788963,15 C3.25378973,12.1618733 4.3810082,9.57847922 6.1275747,7.54178826 L5.39339828,6.80761184 C5.00287399,6.41708755 5.00287399,5.78392257 5.39339828,5.39339828 C5.78392257,5.00287399 6.41708755,5.00287399 6.80761184,5.39339828 L7.54178826,6.1275747 C9.57847922,4.3810082 12.1618733,3.25378973 15,3.03788963 L15,2 C15,1.44771525 15.4477153,1 16,1 C16.5522847,1 17,1.44771525 17,2 L17,3.03788963 C19.8381267,3.25378973 22.4215208,4.3810082 24.4582117,6.1275747 L25.1923882,5.39339828 C25.5829124,5.00287399 26.2160774,5.00287399 26.6066017,5.39339828 C26.997126,5.78392257 26.997126,6.41708755 26.6066017,6.80761184 L25.8724253,7.54178826 Z M7.54673024,23.0390562 L13.5857864,17 L5.04484302,17 C5.25091347,19.2867542 6.15681367,21.3717107 7.54673024,23.0390562 Z M8.96094381,24.4532698 C10.6282893,25.8431863 12.7132458,26.7490865 15,26.955157 L15,18.4142136 L8.96094381,24.4532698 Z M24.4532698,8.96094381 L18.4142136,15 L26.955157,15 C26.7490865,12.7132458 25.8431863,10.6282893 24.4532698,8.96094381 Z M23.0390562,7.54673024 C21.3717107,6.15681367 19.2867542,5.25091347 17,5.04484302 L17,13.5857864 L23.0390562,7.54673024 Z M7.54673024,8.96094381 C6.15681367,10.6282893 5.25091347,12.7132458 5.04484302,15 L13.5857864,15 L7.54673024,8.96094381 Z M8.96094381,7.54673024 L15,13.5857864 L15,5.04484302 C12.7132458,5.25091347 10.6282893,6.15681367 8.96094381,7.54673024 Z M24.4532698,23.0390562 C25.8431863,21.3717107 26.7490865,19.2867542 26.955157,17 L18.4142136,17 L24.4532698,23.0390562 Z M23.0390562,24.4532698 L17,18.4142136 L17,26.955157 C19.2867542,26.7490865 21.3717107,25.8431863 23.0390562,24.4532698 Z M16,18 C17.1045695,18 18,17.1045695 18,16 C18,14.8954305 17.1045695,14 16,14 C14.8954305,14 14,14.8954305 14,16 C14,17.1045695 14.8954305,18 16,18 Z M16,17 C15.4477153,17 15,16.5522847 15,16 C15,15.4477153 15.4477153,15 16,15 C16.5522847,15 17,15.4477153 17,16 C17,16.5522847 16.5522847,17 16,17 Z"></path>
      </g>
    </symbol>
    <symbol viewBox="0 0 32 32" id="deployment">
      <g stroke="none" stroke-width="1" fill="#734098" fill-rule="evenodd">
          <rect x="0" y="0" width="32" height="32" style="fill:rgba(0,0,0,0)" />
          <g transform="translate(8.000000, 4.000000)">
              <path d="M10,0 L4,6 L5.41,7.41 L9,3.83 L9,16 L11,16 L11,3.83 L14.59,7.41 L16,6 L10,0 Z M0,14 L7,14 L7,16 L0,16 L0,14 Z M0,18 L16,18 L16,20 L0,20 L0,18 Z M0,22 L16,22 L16,24 L0,24 L0,22 Z" ></path>
          </g>
      </g>
    </symbol>
    <symbol viewBox="0 0 32 32" id="pod">
      <g stroke="none" stroke-width="1" fill="#ba8ff7" fill-rule="evenodd">
          <rect x="0" y="0" width="32" height="32" style="fill:rgba(0,0,0,0)" />
          <path d="M26.4044601,9.54272924 L16.503871,4.03663091 C16.1925085,3.86347025 15.8074915,3.86347025 15.496129,4.03663091 L5.59553986,9.54272924 L16,14.915741 L26.4044601,9.54272924 Z M27,11.4037019 L17,16.5678447 L17,27.6874527 L26.503871,22.4019845 C26.8110887,22.231129 27,21.9175608 27,21.5784748 L27,11.4037019 Z M15,27.6874527 L15,16.5678447 L5,11.4037019 L5,21.5784748 C5,21.9175608 5.18891127,22.231129 5.49612897,22.4019845 L15,27.6874527 Z M17.5116131,2.3896115 L27.5116131,7.95099604 C28.4332662,8.46356278 29,9.40426734 29,10.4215252 L29,21.5784748 C29,22.5957327 28.4332662,23.5364372 27.5116131,24.049004 L17.5116131,29.6103885 C16.5775255,30.1298705 15.4224745,30.1298705 14.4883869,29.6103885 L4.48838692,24.049004 C3.5667338,23.5364372 3,22.5957327 3,21.5784748 L3,10.4215252 C3,9.40426734 3.5667338,8.46356278 4.48838692,7.95099604 L14.4883869,2.3896115 C15.4224745,1.8701295 16.5775255,1.8701295 17.5116131,2.3896115 Z"></path>
      </g>
    </symbol>
    <symbol viewBox="0 0 32 32" id="service">
      <g stroke="none" stroke-width="1" fill="#4178be" fill-rule="evenodd">
          <g transform="translate(2.000000, 2.000000)">
             <rect x="0" y="0" width="32" height="32" style="fill:rgba(0,0,0,0)" />
              <circle cx="7" cy="5" r="1"></circle>
              <path d="M5,20 L5,20.5773503 L7.46410162,22 L7.46410162,26 L4,28 L0.535898385,26 L0.535898385,22 L3,20.5773503 L3,20 L3,16 C3,14.8954305 3.8954305,14 5,14 L13,14 L13,10 L4,10 C2.8954305,10 2,9.1045695 2,8 L2,2 C2,0.8954305 2.8954305,3.55271368e-15 4,3.55271368e-15 L24,3.55271368e-15 C25.1045695,3.55271368e-15 26,0.8954305 26,2 L26,8 C26,9.1045695 25.1045695,10 24,10 L15,10 L15,14 L23,14 C24.1045695,14 25,14.8954305 25,16 L25,20 L25,20.5773503 L27.4641016,22 L27.4641016,26 L24,28 L20.5358984,26 L20.5358984,22 L23,20.5773503 L23,20 L23,16 L15,16 L15,20 L15,20.5773503 L17.4641016,22 L17.4641016,26 L14,28 L10.5358984,26 L10.5358984,22 L13,20.5773503 L13,20 L13,16 L5,16 L5,20 Z M0,23.9610132 L0,24.0583273 C-0.000395336205,24.0258302 -0.000394071878,23.9933928 -2.87747257e-16,23.9610204 Z M3.67614423,28 L4.32385577,28 C4.21694218,28.008603 4.10893058,28.0129833 4,28.0129833 C3.89106942,28.0129833 3.78305782,28.008603 3.67614423,28 Z M10,28 L18,28 L10,28 Z M23.6761442,28 L24.3238558,28 C24.2169422,28.008603 24.1089306,28.0129833 24,28.0129833 C23.8910694,28.0129833 23.7830578,28.008603 23.6761442,28 Z M28,24.0583271 C28.0003953,24.0258302 28.0003941,23.9933928 28,23.9610204 L28,24.0583273 Z M4,8 L24,8 L24,2 L4,2 L4,8 Z M4,22.3094011 L2.53589838,23.1547005 L2.53589838,24.8452995 L4,25.6905989 L5.46410162,24.8452995 L5.46410162,23.1547005 L4,22.3094011 Z M12.5358984,23.1547005 L12.5358984,24.8452995 L14,25.6905989 L15.4641016,24.8452995 L15.4641016,23.1547005 L14,22.3094011 L12.5358984,23.1547005 Z M22.5358984,23.1547005 L22.5358984,24.8452995 L24,25.6905989 L25.4641016,24.8452995 L25.4641016,23.1547005 L24,22.3094011 L22.5358984,23.1547005 Z"></path>
          </g>
      </g>
    </symbol>
</svg>