<?xml version="1.0" encoding="UTF-8"?>
<svg width="10px" height="9px" viewBox="0 0 10 9" version="1.1" xmlns="http://www.w3.org/2000/svg" xmlns:xlink="http://www.w3.org/1999/xlink">
    <!-- Generator: sketchtool 59 (101010) - https://sketch.com -->
    <title>DD772E5E-71B6-46B8-9AA4-8D43E77D7C3E</title>
    <desc>Created with sketchtool.</desc>
    <g id="App-L" stroke="none" stroke-width="1" fill="none" fill-rule="evenodd">
        <g id="01.00-Apps-WO-ICAM" transform="translate(-702.000000, -362.000000)" fill="#FB4B53">
            <g id="Group-3" transform="translate(71.000000, 222.714844)">
                <g id="Organization-/-Status-/-warning--alt--filled-/-16-Copy-Organization-/-Status-/-warning--alt--filled-/-16" transform="translate(631.000000, 138.785156)">
                    <path d="M9.31249987,8.31250018 L5.24999992,0.812499987 C5.18749992,0.624999982 4.99999993,0.562499981 4.87499993,0.687499984 C4.81249993,0.687499984 4.74999993,0.749999985 4.74999993,0.812499987 L0.687499984,8.31250018 C0.624999985,8.43750018 0.624999985,8.50000018 0.687499984,8.62500018 C0.749999984,8.68750018 0.812499983,8.75000019 0.937499981,8.75000019 L9.06249987,8.75000019 C9.18749987,8.75000019 9.24999987,8.68750018 9.31249987,8.62500018 C9.37499987,8.50000018 9.37499987,8.37500018 9.31249987,8.31250018 Z M4.62499999,3.43749989 L5.3125,3.43749989 L5.3125,5.93749989 L4.62499999,5.93749989 L4.62499999,3.43749989 Z M5.0000001,7.62499983 C4.75000011,7.62499983 4.5000001,7.43749984 4.5000001,7.12499983 C4.5000001,6.81249983 4.68750011,6.62499983 5.0000001,6.62499983 C5.25000012,6.62499983 5.5000001,6.81249983 5.5000001,7.12499983 C5.5000001,7.43749984 5.25000012,7.62499983 5.0000001,7.62499983 Z" id="Fill"></path>
                </g>
            </g>
        </g>
    </g>
</svg>