<svg width="112px" height="112px" viewBox="0 0 112 112" version="1.1" xmlns="http://www.w3.org/2000/svg" xmlns:xlink="http://www.w3.org/1999/xlink">
    <!-- Generator: Sketch 48.2 (47327) - http://www.bohemiancoding.com/sketch -->
    <title>ICP-Connect_Icons-13</title>
    <desc>Created with Sketch.</desc>
    <defs>
        <linearGradient x1="0.00358148562%" y1="50.0023721%" x2="100.003338%" y2="50.0023721%" id="linearGradient-1">
            <stop stop-color="#F6F3F3" offset="0%"></stop>
            <stop stop-color="#D1D7F4" offset="100%"></stop>
        </linearGradient>
        <linearGradient x1="-9.49349018%" y1="29.3721585%" x2="109.554979%" y2="70.6560204%" id="linearGradient-2">
            <stop stop-color="#D1D7F4" offset="0%"></stop>
            <stop stop-color="#F6F3F3" offset="100%"></stop>
        </linearGradient>
        <linearGradient x1="-9.33493226%" y1="80.628437%" x2="109.396422%" y2="19.3997419%" id="linearGradient-3">
            <stop stop-color="#89A2F6" offset="0%"></stop>
            <stop stop-color="#3C6DF0" offset="100%"></stop>
        </linearGradient>
        <linearGradient x1="3898.77472%" y1="11701%" x2="11700.3181%" y2="3899%" id="linearGradient-4">
            <stop stop-color="#89A2F6" offset="0%"></stop>
            <stop stop-color="#3C6DF0" offset="100%"></stop>
        </linearGradient>
    </defs>
    <g id="Getting-Started-1-Copy-2" stroke="none" stroke-width="1" fill="none" fill-rule="evenodd" transform="translate(-664.000000, -1631.000000)">
        <g id="ICP-Connect_Icons-13" transform="translate(664.000000, 1631.000000)" fill-rule="nonzero">
            <g id="Layer_2" transform="translate(15.000000, 6.000000)" fill="url(#linearGradient-1)">
                <path d="M91.81,37.35 C85.55,16.49 77.72,4.75 65.38,0.53 C56.04,-2.66 101.24,66.06 85.46,70.79 C48.83,81.79 60.46,80.79 30.96,93.04 C32.96,99.77 -1.61,79.16 0.83,84.04 C11.7,105.75 27.75,109.78 57.65,100.8 C94.28,89.82 102.8,74 91.81,37.35 Z" id="Shape"></path>
            </g>
            <g id="Layer_2-2">
                <rect id="Rectangle-path" fill="url(#linearGradient-2)" transform="translate(53.996853, 54.082465) rotate(-18.520000) translate(-53.996853, -54.082465) " x="46.5018529" y="46.8424647" width="14.99" height="14.48"></rect>
                <rect id="Rectangle-path" fill="url(#linearGradient-3)" transform="translate(53.996853, 54.082465) rotate(-18.520000) translate(-53.996853, -54.082465) " x="46.5018529" y="46.8424647" width="14.99" height="14.48"></rect>
                <path d="M102.81,39.35 C91.82,2.72 76,-5.8 39.35,5.19 C2.7,16.18 -5.8,32 5.19,68.65 C16.18,105.3 32,113.8 68.65,102.81 C105.3,91.82 113.8,76 102.81,39.35 Z M84.33,63.12 L77.43,65.42 L79.82,72.58 C80.2856844,73.9710546 80.1795862,75.4901407 79.5250542,76.8029556 C78.8705222,78.1157705 77.7211939,79.1147318 76.33,79.58 C75.7302791,79.7906556 75.0944408,79.8790609 74.46,79.84 C72.1536895,79.7422638 70.1349701,78.2608161 69.35,76.09 L66.96,68.93 L52.72,73.68 L55.11,80.84 C55.5756844,82.2310546 55.4695862,83.7501407 54.8150542,85.0629556 C54.1605222,86.3757705 53.0111939,87.3747318 51.62,87.84 C51.0202791,88.0506556 50.3844408,88.1390609 49.75,88.1 C47.4436895,88.0022638 45.4249701,86.5208161 44.64,84.35 L42.25,77.19 L35.35,79.49 C34.7502791,79.7006556 34.1144408,79.7890609 33.48,79.75 C31.1699836,79.656239 29.1463443,78.1740813 28.36,76 C27.8943156,74.6089454 28.0004138,73.0898593 28.6549458,71.7770444 C29.3094778,70.4642295 30.4588061,69.4652682 31.85,69 L38.75,66.7 L34.15,53 L27.25,55.3 C26.6502791,55.5106556 26.0144408,55.5990609 25.38,55.56 C23.0736895,55.4622638 21.0549701,53.9808161 20.27,51.81 C19.8043156,50.4189454 19.9104138,48.8998593 20.5649458,47.5870444 C21.2194778,46.2742295 22.3688061,45.2752682 23.76,44.81 L30.66,42.51 L28.27,35.35 C27.6465715,33.4779283 28.0692383,31.4154676 29.3787857,29.9395269 C30.6883331,28.4635862 32.6858098,27.7983959 34.6187857,28.1945269 C36.5517615,28.5906579 38.1265715,29.9879283 38.75,31.86 L41.14,39 L55.37,34.23 L53,27.08 C52.0362631,24.1860279 53.6010279,21.0587369 56.495,20.095 C59.3889721,19.1312631 62.5162631,20.6960279 63.48,23.59 L65.87,30.75 L72.77,28.45 C75.6639721,27.4862631 78.7912631,29.0510279 79.755,31.945 C80.7187369,34.8389721 79.1539721,37.9662631 76.26,38.93 L69.36,41.23 L73.96,54.95 L80.86,52.65 C83.7539721,51.6862631 86.8812631,53.2510279 87.845,56.145 C88.8087369,59.0389721 87.2439721,62.1662631 84.35,63.13 L84.33,63.12 Z" id="Shape" fill="url(#linearGradient-4)"></path>
            </g>
        </g>
    </g>
</svg>
