<svg width="175px" height="135px" viewBox="0 0 175 135" version="1.1" xmlns="http://www.w3.org/2000/svg" xmlns:xlink="http://www.w3.org/1999/xlink">
    <!-- Generator: Sketch 48.2 (47327) - http://www.bohemiancoding.com/sketch -->
    <title>ICP-Connect_Icons-12</title>
    <desc>Created with Sketch.</desc>
    <defs>
        <linearGradient x1="0.0260914942%" y1="50.0016274%" x2="100.026091%" y2="50.0016274%" id="linearGradient-1">
            <stop stop-color="#F6F3F3" offset="0%"></stop>
            <stop stop-color="#D1D7F4" offset="100%"></stop>
        </linearGradient>
        <linearGradient x1="9.65385284%" y1="93.8862612%" x2="90.9027657%" y2="-5.66940874%" id="linearGradient-2">
            <stop stop-color="#89A2F6" offset="0%"></stop>
            <stop stop-color="#3C6DF0" offset="100%"></stop>
        </linearGradient>
        <linearGradient x1="2826%" y1="12059%" x2="11257%" y2="12059%" id="linearGradient-3">
            <stop stop-color="#F6F3F3" offset="0%"></stop>
            <stop stop-color="#D1D7F4" offset="100%"></stop>
        </linearGradient>
        <linearGradient x1="3095%" y1="13646.1749%" x2="9779%" y2="7634.6096%" id="linearGradient-4">
            <stop stop-color="#89A2F6" offset="0%"></stop>
            <stop stop-color="#3C6DF0" offset="100%"></stop>
        </linearGradient>
    </defs>
    <g id="Getting-Started-1-Copy-2" stroke="none" stroke-width="1" fill="none" fill-rule="evenodd" transform="translate(-213.000000, -1624.000000)">
        <g id="ICP-Connect_Icons-12" transform="translate(212.947897, 1624.500000)">
            <path d="M165.33,3.79 L68,3.79 C63.1178028,3.79 59.16,7.74780281 59.16,12.63 L59.16,77.16 C59.16,82.0421972 63.1178028,86 68,86 L140.41,86 L157.34,97.4 C157.745545,97.6745613 158.269769,97.7020224 158.701781,97.4713361 C159.133794,97.2406498 159.402576,96.7897391 159.4,96.3 L159.4,86 L165.3,86 C170.182197,86 174.14,82.0421972 174.14,77.16 L174.14,12.63 C174.140028,7.75949458 170.200477,3.80652886 165.33,3.79 Z" id="Shape" fill="url(#linearGradient-1)"></path>
            <path d="M161.5,0 L64.2,0 C59.3178028,0 55.36,3.95780281 55.36,8.84 L55.36,73.37 C55.36,75.7145138 56.2913545,77.9630024 57.9491761,79.6208239 C59.6069976,81.2786455 61.8554862,82.21 64.2,82.21 L136.61,82.21 L153.54,93.61 C153.945545,93.8845613 154.469769,93.9120224 154.901781,93.6813361 C155.333794,93.4506498 155.602576,92.9997391 155.6,92.51 L155.6,82.21 L161.5,82.21 C166.382197,82.21 170.34,78.2521972 170.34,73.37 L170.34,8.8 C170.317979,3.93343104 166.366619,-4.98212934e-05 161.5,0 Z" id="Shape" fill="url(#linearGradient-2)"></path>
            <rect id="Rectangle-path" fill="#FFFFFF" fill-rule="nonzero" x="70.6" y="53.51" width="76.62" height="6.43"></rect>
            <rect id="Rectangle-path" fill="#FFFFFF" fill-rule="nonzero" x="70.6" y="14.08" width="76.62" height="6.43"></rect>
            <rect id="Rectangle-path" fill="#FFFFFF" fill-rule="nonzero" x="70.6" y="26.39" width="59" height="6.43"></rect>
            <rect id="Rectangle-path" fill="#FFFFFF" fill-rule="nonzero" x="70.6" y="38.63" width="67.08" height="6.43"></rect>
            <path d="M42,45.27 C25.7691834,46.590191 11.7516862,57.1439916 5.99613951,72.3773758 C0.240592794,87.61076 3.77724099,104.796948 15.08,116.52 C14.0466707,122.362678 14.9896711,128.383103 17.76,133.63 C17.899327,133.889773 18.1702218,134.05188 18.465,134.05188 C18.7597782,134.05188 19.030673,133.889773 19.17,133.63 C20.9723993,130.377515 23.0464462,127.283171 25.37,124.38 C41.2028701,132.938009 60.7225441,130.501615 73.9660465,118.31437 C87.2095489,106.127125 91.2562455,86.8767245 84.0406746,70.3887039 C76.8251037,53.9006833 59.9385394,43.8112018 42,45.27 Z" id="Shape" fill="url(#linearGradient-3)"></path>
            <path d="M39.55,41.62 C23.3191834,42.940191 9.30168623,53.4939916 3.54613951,68.7273758 C-2.20940721,83.96076 1.32724099,101.146948 12.63,112.87 C11.5920908,118.719135 12.5352112,124.747364 15.31,130 C15.449327,130.259773 15.7202218,130.42188 16.015,130.42188 C16.3097782,130.42188 16.580673,130.259773 16.72,130 C18.5223993,126.747515 20.5964462,123.653171 22.92,120.75 C38.7517841,129.317011 58.2765031,126.887151 71.5255484,114.701017 C84.7745938,102.514882 88.8249751,83.2609663 81.6087156,66.7696149 C74.3924561,50.2782635 57.5015994,40.1877813 39.56,41.65 L39.55,41.62 Z" id="Shape" fill="url(#linearGradient-4)"></path>
            <circle id="Oval" fill="#FFFFFF" fill-rule="nonzero" cx="28.07" cy="84.54" r="4.72"></circle>
            <circle id="Oval" fill="#FFFFFF" fill-rule="nonzero" cx="43.28" cy="84.54" r="4.72"></circle>
            <circle id="Oval" fill="#FFFFFF" fill-rule="nonzero" cx="58.48" cy="84.54" r="4.72"></circle>
        </g>
    </g>
</svg>
