<svg width="84px" height="124px" viewBox="0 0 84 124" version="1.1" xmlns="http://www.w3.org/2000/svg" xmlns:xlink="http://www.w3.org/1999/xlink">
    <!-- Generator: Sketch 48.2 (47327) - http://www.bohemiancoding.com/sketch -->
    <title>ICP-Connect_Icons-14</title>
    <desc>Created with Sketch.</desc>
    <defs>
        <linearGradient x1="2.70300116%" y1="78.3973007%" x2="97.3482735%" y2="14.8713623%" id="linearGradient-1">
            <stop stop-color="#F6F3F3" offset="0%"></stop>
            <stop stop-color="#D1D7F4" offset="100%"></stop>
        </linearGradient>
        <linearGradient x1="2.6653029%" y1="78.3804302%" x2="97.3105713%" y2="14.862927%" id="linearGradient-2">
            <stop stop-color="#89A2F6" offset="0%"></stop>
            <stop stop-color="#3C6DF0" offset="100%"></stop>
        </linearGradient>
    </defs>
    <g id="Getting-Started-1-Copy-2" stroke="none" stroke-width="1" fill="none" fill-rule="evenodd" transform="translate(-1090.000000, -1626.000000)">
        <g id="ICP-Connect_Icons-14" transform="translate(1089.861989, 1626.000000)" fill-rule="nonzero">
            <path d="M7.66,44.58 C6.61689525,44.5830647 5.62176752,44.1421086 4.92333187,43.3673412 C4.22489622,42.5925738 3.88914738,41.5572023 4,40.52 C6.07,19.44 20.75,4.52 43.17,4.52 C73.66,4.52 83.55,23.52 83.55,35.82 C83.55,66.82 56.79,62.58 54.03,82.21 L54.03,85 C54.03,86.8777681 52.5077681,88.4 50.63,88.4 L35.57,88.4 C33.6922319,88.4 32.17,86.8777681 32.17,85 L32.17,81.1 C34.44,53.04 58.61,55.64 58.17,38.1 C58.17,28.21 52.98,23.5 44.38,23.5 C33.84,23.5 28.72,31.3 27.82,41.29 C27.6491967,43.1610767 26.0788547,44.5926039 24.2,44.59 L7.66,44.58 Z M33,98.1 L52.22,98.1 C53.9541741,98.1 55.36,99.5058259 55.36,101.24 L55.36,119.93 C55.36,121.664174 53.9541741,123.07 52.22,123.07 L33,123.07 C31.2658259,123.07 29.86,121.664174 29.86,119.93 L29.86,101.25 C29.8573423,100.415489 30.1869891,99.6142462 30.7761417,99.0232174 C31.3652942,98.4321886 32.1654847,98.0999958 33,98.1 Z" id="Shape" fill="url(#linearGradient-1)"></path>
            <path d="M4.06,41 C3.02212439,40.9945663 2.03507809,40.5499299 1.34329706,39.7762024 C0.651516027,39.0024748 0.319692306,37.9720114 0.43,36.94 C2.5,15.86 17.18,0.94 39.6,0.94 C70.09,0.94 79.98,19.94 79.98,32.24 C79.98,63.24 53.22,59 50.46,78.63 L50.46,81.39 C50.46,83.2677681 48.9377681,84.79 47.06,84.79 L32,84.79 C31.0982639,84.79 30.2334606,84.4317867 29.5958369,83.7941631 C28.9582133,83.1565394 28.6,82.2917361 28.6,81.39 L28.6,77.49 C30.87,49.43 55.04,52.03 54.6,34.49 C54.6,24.6 49.41,19.89 40.81,19.89 C30.27,19.89 25.15,27.69 24.25,37.68 C24.0867923,39.5900429 22.4664997,41.0439271 20.55,41 L4.06,41 Z M29.44,94.52 L48.62,94.52 C50.3541741,94.52 51.76,95.9258259 51.76,97.66 L51.76,116.35 C51.76,118.084174 50.3541741,119.49 48.62,119.49 L29.45,119.49 C27.7158259,119.49 26.31,118.084174 26.31,116.35 L26.31,97.65 C26.31,95.9158259 27.7158259,94.51 29.45,94.51 L29.44,94.52 Z" id="Shape" fill="url(#linearGradient-2)"></path>
        </g>
    </g>
</svg>
