<?xml version="1.0" encoding="utf-8"?>
<svg width="240px" height="16px" viewBox="0 1 240 14" version="1.1" id="Layer_1" xmlns="http://www.w3.org/2000/svg" xmlns:xlink="http://www.w3.org/1999/xlink" x="0px" y="0px" xml:space="preserve">
<style type="text/css">
	.st0{fill:#FFFFFF;}
</style>
<g>
	<path class="st0" d="M1,12v-1.1h1.6v-9H1V0.8h4.5v1.1H3.9v8.9h1.6V12H1z"/>
	<path class="st0" d="M7.9,0.8h4.6c1.8,0,3,1.1,3,2.9c0,1.7-1.1,2.3-1.8,2.4v0.1c0.8,0,2.2,0.7,2.2,2.6c0,1.8-1.2,3.2-2.9,3.2H7.9
		V0.8z M9.2,5.7h3.1c1.1,0,1.7-0.6,1.7-1.6V3.6c0-1-0.6-1.6-1.7-1.6H9.2V5.7z M9.2,10.8h3.3c1.2,0,1.9-0.6,1.9-1.7V8.5
		c0-1.1-0.7-1.7-1.9-1.7H9.2V10.8z"/>
	<path class="st0" d="M18.3,0.8h1.8l3.2,6h0.1l3.2-6h1.7V12H27V2.6l0,0l-1,1.9l-2.7,4.9l-2.7-4.9l-0.9-1.9h-0.1V12h-1.3V0.8z"/>
	<path class="st0" d="M34.3,0.8h2.1l3,5.7h0.1l3-5.7h2V12h-1.7V3.5h-0.1l-0.9,1.8l-2.4,4.5l-2.4-4.5l-0.9-1.8H36V12h-1.7V0.8z"/>
	<path class="st0" d="M52.3,10.6L52.3,10.6c-0.4,0.8-1,1.6-2.4,1.6c-1.7,0-2.7-1.2-2.7-3.2V3.7h1.7v5.1c0,1.3,0.5,1.9,1.6,1.9
		c0.9,0,1.8-0.5,1.8-1.4V3.7H54V12h-1.7V10.6z"/>
	<path class="st0" d="M58.4,12c-1.2,0-1.8-0.7-1.8-1.7V0.2h1.7v10.4h1.2V12H58.4z"/>
	<path class="st0" d="M63.5,12c-1.2,0-1.8-0.7-1.8-1.8V5.1h-1.3V3.7h0.7c0.6,0,0.8-0.2,0.8-0.8V1.4h1.6v2.3h1.7v1.4h-1.7v5.5H65V12
		H63.5z"/>
	<path class="st0" d="M67,1.3V1c0-0.5,0.3-0.9,1-0.9s1,0.4,1,0.9v0.3c0,0.5-0.3,0.9-1,0.9S67,1.8,67,1.3z M67.1,3.7h1.7V12h-1.7V3.7
		z"/>
	<path class="st0" d="M71.2,8V6.2h4.4V8H71.2z"/>
	<path class="st0" d="M77.6,7.8c0-2.7,1.4-4.4,3.8-4.4c1.7,0,2.7,0.8,3.2,2l-1.4,0.7c-0.2-0.8-0.8-1.3-1.8-1.3
		c-1.3,0-1.9,0.9-1.9,2.2v1.5c0,1.3,0.7,2.2,1.9,2.2c1,0,1.6-0.5,2-1.4l1.3,0.7c-0.5,1.4-1.7,2.1-3.3,2.1
		C79,12.2,77.6,10.5,77.6,7.8z"/>
	<path class="st0" d="M88.2,12c-1.2,0-1.8-0.7-1.8-1.7V0.2h1.7v10.4h1.2V12H88.2z"/>
	<path class="st0" d="M90.5,7.8c0-2.7,1.5-4.4,3.8-4.4c2.3,0,3.8,1.7,3.8,4.4s-1.5,4.4-3.8,4.4C92,12.2,90.5,10.5,90.5,7.8z
		 M96.3,8.5V7.1c0-1.5-0.8-2.2-2-2.2s-2,0.7-2,2.2v1.4c0,1.5,0.8,2.2,2,2.2S96.3,10,96.3,8.5z"/>
	<path class="st0" d="M105.2,10.6L105.2,10.6c-0.4,0.8-1,1.6-2.4,1.6c-1.7,0-2.7-1.2-2.7-3.2V3.7h1.7v5.1c0,1.3,0.5,1.9,1.6,1.9
		c0.9,0,1.8-0.5,1.8-1.4V3.7h1.7V12h-1.7V10.6z"/>
	<path class="st0" d="M114.8,10.6L114.8,10.6c-0.4,1-1.3,1.6-2.4,1.6c-2.1,0-3.3-1.6-3.3-4.4c0-2.7,1.2-4.4,3.3-4.4
		c1.1,0,2,0.6,2.3,1.6h0.1V0.2h1.7V12h-1.7V10.6z M114.8,9.3V6.4c0-0.8-0.8-1.4-1.9-1.4c-1.2,0-2,0.8-2,2.1v1.4c0,1.3,0.8,2.1,2,2.1
		C113.9,10.7,114.8,10.1,114.8,9.3z"/>
	<path class="st0" d="M123.1,0.8h2.1l3,5.7h0.1l3-5.7h2V12h-1.7V3.5h-0.1l-0.9,1.8l-2.4,4.5l-2.4-4.5l-0.9-1.8h-0.1V12h-1.7V0.8z"/>
	<path class="st0" d="M142.2,12c-0.9,0-1.4-0.6-1.5-1.4h-0.1c-0.3,1-1.2,1.6-2.4,1.6c-1.7,0-2.7-1-2.7-2.5c0-1.6,1.2-2.5,3.6-2.5
		h1.5V6.5c0-1-0.5-1.6-1.7-1.6c-1,0-1.6,0.5-2,1.1l-1-0.9c0.5-0.9,1.5-1.6,3.1-1.6c2.1,0,3.3,1.1,3.3,2.9v4.2h0.9V12H142.2z
		 M140.6,9.5V8.3h-1.5c-1.2,0-1.8,0.4-1.8,1.1v0.3c0,0.7,0.5,1.1,1.4,1.1C139.8,10.9,140.6,10.4,140.6,9.5z"/>
	<path class="st0" d="M145,12V3.7h1.7v1.4h0.1c0.4-0.9,1.1-1.6,2.3-1.6c1.7,0,2.7,1.2,2.7,3.2V12h-1.7V6.9c0-1.3-0.5-2-1.6-2
		c-0.9,0-1.8,0.5-1.8,1.4V12H145z"/>
	<path class="st0" d="M160.5,12c-0.9,0-1.4-0.6-1.5-1.4h-0.1c-0.3,1-1.2,1.6-2.4,1.6c-1.7,0-2.7-1-2.7-2.5c0-1.6,1.2-2.5,3.6-2.5
		h1.5V6.5c0-1-0.5-1.6-1.7-1.6c-1,0-1.6,0.5-2,1.1l-1-0.9c0.5-0.9,1.5-1.6,3.1-1.6c2.1,0,3.3,1.1,3.3,2.9v4.2h0.9V12H160.5z
		 M158.8,9.5V8.3h-1.5c-1.2,0-1.8,0.4-1.8,1.1v0.3c0,0.7,0.5,1.1,1.4,1.1C158,10.9,158.8,10.4,158.8,9.5z"/>
	<path class="st0" d="M166.3,15.4c-2.7,0-3.8-0.7-3.8-2c0-0.9,0.5-1.4,1.4-1.6v-0.2c-0.6-0.2-0.9-0.7-0.9-1.3c0-0.9,0.7-1.3,1.5-1.5
		V8.8c-1-0.5-1.5-1.3-1.5-2.5c0-1.7,1.2-2.8,3.3-2.8c0.6,0,1.1,0.1,1.5,0.3V3.5c0-0.7,0.4-1.2,1.1-1.2h1.3v1.4h-1.7v0.3
		c0.8,0.5,1.2,1.3,1.2,2.3c0,1.7-1.2,2.8-3.3,2.8c-0.4,0-0.8,0-1.1-0.1c-0.4,0.1-0.8,0.4-0.8,0.8c0,0.4,0.4,0.6,1.2,0.6h2
		c2,0,2.9,0.9,2.9,2.3C170.5,14.5,169.3,15.4,166.3,15.4z M167.4,12h-2.8c-0.4,0.2-0.6,0.6-0.6,1c0,0.7,0.5,1.1,1.8,1.1h1.1
		c1.4,0,2-0.4,2-1.2C168.9,12.4,168.5,12,167.4,12z M167.9,6.5V6.2c0-0.9-0.6-1.4-1.6-1.4c-1,0-1.6,0.5-1.6,1.4v0.3
		c0,0.9,0.6,1.4,1.6,1.4C167.3,7.9,167.9,7.4,167.9,6.5z"/>
	<path class="st0" d="M171.3,7.8c0-2.7,1.5-4.4,3.8-4.4c2.4,0,3.7,1.8,3.7,4.1v0.7h-5.7v0.3c0,1.3,0.8,2.2,2.2,2.2
		c1,0,1.7-0.5,2.2-1.2l1,1c-0.6,1-1.8,1.7-3.4,1.7C172.7,12.2,171.3,10.5,171.3,7.8z M173.1,7v0.1h3.9V7c0-1.3-0.7-2.1-1.9-2.1
		C173.9,4.8,173.1,5.7,173.1,7z"/>
	<path class="st0" d="M180.8,12V3.7h1.7v1.6h0.1c0.2-0.8,1-1.6,2.3-1.6h0.5v1.7h-0.7c-1.4,0-2.1,0.5-2.1,1.3V12H180.8z"/>
</g>
</svg>
