<?xml version="1.0" encoding="UTF-8"?>
<svg width="32px" height="32px" viewBox="0 0 32 32" version="1.1" xmlns="http://www.w3.org/2000/svg" xmlns:xlink="http://www.w3.org/1999/xlink">
    <title>Product_Icon-Red_Hat-Advanced_Cluster_Management_for_Kubernetes-RGB</title>
    <g id="Redlines" stroke="none" stroke-width="1" fill="none" fill-rule="evenodd">
        <g id="ACM-2.1-Create-App-Redlines-01.00" transform="translate(-422.000000, -715.000000)" fill-rule="nonzero">
            <g id="Product_Icon-Red_Hat-Advanced_Cluster_Management_for_Kubernetes-RGB" transform="translate(422.000000, 715.000000)">
                <circle id="Oval" fill="#DB3927" cx="16.0031154" cy="16.0031154" r="15.9590542"></circle>
                <path d="M27.2881224,4.71766342 L4.71766342,27.2881224 C10.9485396,33.5189986 21.0545758,33.5189986 27.2872323,27.2881224 C33.5198887,21.0572462 33.5203338,10.95121 27.2881224,4.71766342 Z" id="Path" fill="#CB3628"></path>
                <polygon id="Rectangle" fill="#FFFFFF" transform="translate(19.202092, 12.887692) rotate(-44.960000) translate(-19.202092, -12.887692) " points="14.6809233 12.4426295 23.7232599 12.4426295 23.7232599 13.3327546 14.6809233 13.3327546"></polygon>
                <polygon id="Rectangle" fill="#FFFFFF" transform="translate(14.047405, 11.975067) rotate(-25.450000) translate(-14.047405, -11.975067) " points="13.6023429 7.42496941 14.4924681 7.42496941 14.4924681 16.5251641 13.6023429 16.5251641"></polygon>
                <polygon id="Rectangle" fill="#FFFFFF" transform="translate(11.621546, 16.605085) rotate(-6.790000) translate(-11.621546, -16.605085) " points="7.20919598 16.1600223 16.033897 16.1600223 16.033897 17.0501475 7.20919598 17.0501475"></polygon>
                <polygon id="Rectangle" fill="#FFFFFF" transform="translate(15.328803, 20.497291) rotate(-81.310000) translate(-15.328803, -20.497291) " points="10.8643807 20.0522283 19.7932263 20.0522283 19.7932263 20.9423534 10.8643807 20.9423534"></polygon>
                <polygon id="Rectangle" fill="#FFFFFF" transform="translate(20.154073, 18.080528) rotate(-64.300000) translate(-20.154073, -18.080528) " points="19.7090103 13.4732402 20.5991355 13.4732402 20.5991355 22.687816 19.7090103 22.687816"></polygon>
                <circle id="Oval" fill="#FFFFFF" cx="22.4017803" cy="9.69479833" r="1.96183588"></circle>
                <circle id="Oval" fill="#FFFFFF" cx="12.0923505" cy="7.86648122" r="1.96183588"></circle>
                <circle id="Oval" fill="#FFFFFF" cx="24.305758" cy="20.0798887" r="1.96183588"></circle>
                <circle id="Oval" fill="#FFFFFF" cx="7.24027816" cy="17.1268985" r="1.96183588"></circle>
                <circle id="Oval" fill="#FFFFFF" cx="14.6541307" cy="24.910153" r="1.96183588"></circle>
                <path d="M19.7581085,12.4136857 L12.2476773,19.9241168 C14.3216256,21.9980651 17.6841602,21.998065 19.7581084,19.9241168 C21.8320567,17.8501685 21.8320567,14.487634 19.7581085,12.4136857 Z" id="Path" fill="#E3E3E2"></path>
                <path d="M16.675605,10.8933519 C14.4192855,10.6017102 12.2278259,11.7796082 11.2262314,13.8223615 C10.224637,15.8651148 10.6354104,18.3189291 12.2476773,19.9241168 L19.7581085,12.4136857 C18.9284102,11.5780185 17.8436562,11.0430027 16.675605,10.8933519 L16.675605,10.8933519 Z" id="Path" fill="#FFFFFF"></path>
            </g>
        </g>
    </g>
</svg>