<?xml version="1.0" encoding="utf-8"?>
<!-- Generator: Adobe Illustrator 22.1.0, SVG Export Plug-In . SVG Version: 6.00 Build 0)  -->
<svg version="1.1" id="Layer_1" xmlns="http://www.w3.org/2000/svg" xmlns:xlink="http://www.w3.org/1999/xlink" x="0px" y="0px"
	 viewBox="0 0 30 30" style="enable-background:new 0 0 30 30;" xml:space="preserve">
<style type="text/css">
	.st0{fill:#3CC674;}
	.st1{fill:#FFFFFF;}
</style>
<circle class="st0" cx="15" cy="15" r="15"/>
<g id="ok-2">
	<path class="st1" d="M25.4,9.6c0.2,0.2,0.2,0.4,0,0.6L12.3,23.3c-0.2,0.2-0.4,0.2-0.6,0l-2.9-2.9c-0.2-0.2-0.4-0.4-0.6-0.6
		l-3.5-3.5c-0.2-0.2-0.2-0.5,0-0.6l2.9-2.9c0.2-0.2,0.5-0.2,0.6,0l3.5,3.5c0.2,0.2,0.4,0.2,0.6,0l9.4-9.5c0.2-0.2,0.5-0.2,0.6,0
		L25.4,9.6z"/>
</g>
</svg>
