<?xml version="1.0" encoding="UTF-8"?>
<svg width="39px" height="31px" viewBox="0 0 39 31" version="1.1" xmlns="http://www.w3.org/2000/svg" xmlns:xlink="http://www.w3.org/1999/xlink">
    <!-- Generator: Sketch 61.2 (89653) - https://sketch.com -->
    <title>GoogleCloud-icon-color</title>
    <desc>Created with Sketch.</desc>
    <g id="Designs" stroke="none" stroke-width="1" fill="none" fill-rule="evenodd">
        <g id="create-aws-0" transform="translate(-420.000000, -937.000000)" fill-rule="nonzero">
            <g id="Group-9" transform="translate(71.000000, 573.000000)">
                <g id="Group-11" transform="translate(0.000000, 339.000000)">
                    <g id="Group-5" transform="translate(325.000000, 0.000000)">
                        <g id="GoogleCloud-icon-color" transform="translate(24.000000, 25.000000)">
                            <path d="M25.2120383,8.44865245 L26.4116595,8.44865245 L29.8316321,5.13190064 L30,3.72865949 C26.0177872,0.321162069 20.5038237,-0.851048753 15.4170114,0.628469021 C10.3301991,2.10798679 6.39143032,6.02955902 5,11 C5.3808282,10.8484195 5.80276964,10.8237415 6.19962117,10.9298379 L13.0395665,9.83658552 C13.0395665,9.83658552 13.3868252,9.27784041 13.5657161,9.31355927 C16.6055557,6.07322186 21.7234726,5.69391409 25.235715,8.44865245 L25.2120383,8.44865245 Z" id="Path" fill="#EA4335"></path>
                            <path d="M34.2485289,11.2728139 C33.485701,8.46126499 31.9188134,5.93360005 29.740146,4 L25.0797377,8.66242061 C27.0478497,10.2707786 28.1690941,12.6935379 28.1215228,15.2350409 L28.1215228,16.0617294 C30.3837407,16.1014405 32.1968502,17.9469426 32.1968502,20.2098655 C32.1968502,22.4727883 30.3837407,24.3182904 28.1215228,24.3580015 L19.8252806,24.3580015 L19,25.1974672 L19,30.1729306 L19.8265582,30.999619 L28.1215228,30.999619 C32.8787578,31.0394164 37.1004044,27.9576165 38.5127988,23.4139928 C39.9251931,18.870369 38.1948313,13.9377923 34.253639,11.2728139 L34.2485289,11.2728139 Z" id="Path" fill="#4285F4"></path>
                            <path d="M10.59736,30.9999254 L19,30.9999254 L19,24.3757922 L10.59736,24.3757922 C9.99689606,24.3750721 9.40365134,24.2468945 8.85807954,24 L7.67785351,24.3605057 L4.28988008,27.6725723 L4,28.8343434 C5.8988833,30.2478641 8.2166663,31.0086759 10.59736,30.9999254 Z" id="Path" fill="#34A853"></path>
                            <path d="M11.0990804,9 C6.33112419,9.02818326 2.10724782,12.0793201 0.584962793,16.5950398 C-0.937322238,21.1107595 0.57801693,26.0942512 4.35696105,29 L9.3368755,24.0244711 C7.60344602,23.2347647 6.59850077,21.3974775 6.86918479,19.5129252 C7.13986882,17.6283728 8.62137102,16.1477823 10.5070837,15.8772648 C12.3927964,15.6067474 14.2312149,16.6110742 15.0214075,18.343437 L20,13.366587 C17.8797472,10.5998459 14.586128,8.98411549 11.0990804,9 Z" id="Path" fill="#FBBC05"></path>
                        </g>
                    </g>
                </g>
            </g>
        </g>
    </g>
</svg>