<?xml version="1.0" encoding="utf-8"?>
<svg xmlns="http://www.w3.org/2000/svg" xmlns:xlink="http://www.w3.org/1999/xlink">
    <symbol viewBox="0 0 50 50" id="cloud">
      <path d="M 13.5 13.5 C 1.5 13.5 1.5 25.5 5.5 27.5C 1.5 32.5 5.5 43.5 16.5 39.5C 20.5 48.5 34.5 48.5 39.5 39.5C 48.5 39.5 48.5 29.5 48.5 25.5C 48.5 15.5 39.5 6.5 30.5 10.5C 25.5 1.5 15.5 1.5 13.5 13.5Z" ></path>
    </symbol>
    <symbol viewBox="0 0 41.5 41.3" id="circle">
       <circle cx="20.8" cy="20.7" r="19.1"/>
       <circle stroke-width="3" cx="20.8" cy="20.7" r="2"/>
    </symbol>
    <symbol viewBox="0 0 50 50" id="roundedSq">
      <rect x="1.5" y="1.5" width="47" height="47" rx="15" ry="15" />
      <circle stroke-width="3" cx="25" cy="25" r="2"/>
    </symbol>
    <symbol viewBox="0 0 50 50" id="roundedRect">
       <rect x="5.5" y="1.5" width="39" height="47" rx="5" ry="5" />
       <circle stroke-width="3" cx="25" cy="25" r="2"/>
    </symbol>
    <symbol viewBox="0 0 42.3 49" id="octogon">
       <polygon points="1.5,13.2 21.1,1.8 40.8,13.2 40.8,35.8 21.1,47.2 1.5,35.8"/>
       <circle stroke-width="3" cx="22" cy="24.4" r="2"/>
    </symbol>
    <symbol viewBox="0 0 50 50" id="cylinder">
      <path d="M 1.5 10 C 1.5 1.5 48 1.5 48 10 L 48 40 C 48 48 1.5 48 1.5 40 Z"></path>
      <circle stroke-width="3" cx="25" cy="25" r="2"/>
    </symbol>
    <symbol viewBox="0 0 50 52" id="host">
      <path d="m1 16 24-13 24 13-24 13z"/>
      <path d="m10 21-9 5 24 14 24-13-9-6-15 7.9z"/>
      <path d="m10 31-9 5 24 14 24-13-8-6-16 9.1z"/>
   </symbol>
   <symbol viewBox="0 0 50 54" id="irregularHexagon">
     <path d="m23 2 23 3.5 3.7 31-28 15-18-8.5-3.2-31z"/>
   </symbol>
   <symbol viewBox="0 0 50 50" id="star4">
     <path d="m25 2 9.1 17 15 6.8-15 7.2-9.2 17-8.8-17-15-7 15-7z" />
     <circle stroke-width="3" cx="25" cy="25" r="2"/>
   </symbol>
</svg>