<?xml version="1.0" encoding="utf-8"?>
<!-- Generator: Adobe Illustrator 22.1.0, SVG Export Plug-In . SVG Version: 6.00 Build 0)  -->
<svg version="1.1" id="Layer_1" xmlns="http://www.w3.org/2000/svg" xmlns:xlink="http://www.w3.org/1999/xlink" x="0px" y="0px"
	 viewBox="0 0 18 18" style="enable-background:new 0 0 18 18;" xml:space="preserve">
<style type="text/css">
	.st0{fill:#8C9BA4;}
	.st1{fill:#FFFFFF;}
</style>
<g>
	<circle class="st0" cx="9" cy="9" r="9"/>
	<path class="st1" d="M9.3,3.9C6.4,3.9,4,6.2,3.9,8.8v0H1.6l2.8,2.8l0,0c0,0,0,0,0,0l0.1,0.1l3-2.9H5.3c0.1-1.9,1.9-3.6,4.1-3.6
		c2.3,0,4.1,1.8,4.1,4.1c0,2.1-1.4,3.4-2.7,3.8c0,0-0.8,0.2-1.1,0.2c-0.1,0-0.2,0.1-0.2,0.2v0.9c0,0.1,0.1,0.2,0.2,0.2
		c0.4,0,1.1-0.2,1.1-0.2c1.9-0.5,4.1-2.3,4.1-5.3S12.3,3.9,9.3,3.9z"/>
</g>
</svg>
