<?xml version="1.0" encoding="UTF-8"?>
<svg width="32px" height="32px" viewBox="0 0 32 32" version="1.1" xmlns="http://www.w3.org/2000/svg" xmlns:xlink="http://www.w3.org/1999/xlink">
    <!-- Generator: Sketch 50 (54983) - http://www.bohemiancoding.com/sketch -->
    <title>Group 13</title>
    <desc>Created with Sketch.</desc>
    <defs></defs>
    <g id="HCM-" stroke="none" stroke-width="1" fill="none" fill-rule="evenodd">
        <g id="HCM-ClusterVisualizer-02.00-Copy-11" transform="translate(-1296.000000, -760.000000)">
            <g id="Group-13" transform="translate(1297.000000, 760.000000)">
                <circle id="Oval-3-Copy" stroke="#D1D7F4" fill="#FFFFFF" cx="15.3129883" cy="15.6591797" r="15"></circle>
                <g id="Group-6-Copy" transform="translate(5.216553, 4.659180)">
                    <g id="radio--button--checked" transform="translate(1.240356, 2.000000)" fill="#3C6DF0" fill-rule="nonzero">
                        <g id="Icon" transform="translate(0.250000, 0.250000)">
                            <circle id="Oval" cx="8.75" cy="8.75" r="3.75"></circle>
                            <path d="M8.75,-3.33066907e-16 C3.91750844,-1.16573418e-15 -3.33066907e-16,3.91750844 -8.8817842e-16,8.75 C-1.44328993e-15,13.5824916 3.91750844,17.5 8.75,17.5 C13.5824916,17.5 17.5,13.5824916 17.5,8.75 C17.5,6.42935571 16.5781276,4.20375898 14.9371843,2.56281566 C13.296241,0.921872353 11.0706443,-6.10622664e-16 8.75,-3.33066907e-16 Z M8.75,16.25 C4.60786438,16.25 1.25,12.8921356 1.25,8.75 C1.25,4.60786438 4.60786438,1.25 8.75,1.25 C12.8921356,1.25 16.25,4.60786438 16.25,8.75 C16.25,10.7391237 15.4598237,12.646778 14.0533009,14.0533009 C12.646778,15.4598237 10.7391237,16.25 8.75,16.25 Z" id="Shape"></path>
                        </g>
                    </g>
                    <g id="Group-4" transform="translate(0.000000, 10.000000)" stroke="#3C6DF0" stroke-linecap="square" stroke-width="1.25">
                        <path d="M16.2403564,1 L20.2403564,1" id="Line-4"></path>
                        <path d="M0.177490234,1 L4.17749023,1" id="Line-4-Copy-2"></path>
                    </g>
                    <g id="Group-5" transform="translate(9.000000, 0.000000)" stroke="#3C6DF0" stroke-linecap="square" stroke-width="1.25">
                        <path d="M1.24035645,17.1583252 L1.24035645,21.1583252" id="Line-4"></path>
                        <path d="M1.24035645,0.871337891 L1.24035645,4.87133789" id="Line-4-Copy"></path>
                    </g>
                </g>
            </g>
        </g>
    </g>
</svg>